<svg width="40" height="40" viewBox="0 0 40 40" fill="none" xmlns="http://www.w3.org/2000/svg">
<path d="M13 15V22H25.3913L28 19.4545L25.3913 15H13Z" fill="#B6B6FD"/>
<mask id="path-2-inside-1_12_55" fill="white">
<path fill-rule="evenodd" clip-rule="evenodd" d="M7 19.9688L20 7L33 19.9688V35C33 36.1046 32.1046 37 31 37H9C7.89543 37 7 36.1046 7 35V19.9688ZM25.68 19.3999C25.6571 19.3713 25.6754 19.3488 25.6754 19.3488C26.5434 18.2881 25.408 17 24.4428 17C23.8002 17 23.2318 17.397 22.8847 18.0061H20.546C20.3609 18.0061 20.24 18.008 20.24 18.008C20.24 18.008 20.0937 18.0081 20 18.008L19.9248 18.0079C19.7763 18.0078 19.7247 18.0077 19.4542 18.0061H17.1154C16.7683 17.3972 16.1998 17 15.5574 17C14.5921 17 13.4567 18.2881 14.3246 19.3488C14.3246 19.3488 14.3429 19.3711 14.32 19.3999C13.4566 20.4876 14.5002 21.8 15.5572 21.8C16.2021 21.8 16.7725 21.3997 17.1192 20.7868H22.8806C23.2274 21.3997 23.7975 21.8 24.4427 21.8C25.4998 21.7999 26.5434 20.4876 25.68 19.3999ZM20 24C17.7909 24 16 25.7909 16 28V35H24V28C24 25.7909 22.2091 24 20 24Z"/>
</mask>
<path fill-rule="evenodd" clip-rule="evenodd" d="M7 19.9688L20 7L33 19.9688V35C33 36.1046 32.1046 37 31 37H9C7.89543 37 7 36.1046 7 35V19.9688ZM25.68 19.3999C25.6571 19.3713 25.6754 19.3488 25.6754 19.3488C26.5434 18.2881 25.408 17 24.4428 17C23.8002 17 23.2318 17.397 22.8847 18.0061H20.546C20.3609 18.0061 20.24 18.008 20.24 18.008C20.24 18.008 20.0937 18.0081 20 18.008L19.9248 18.0079C19.7763 18.0078 19.7247 18.0077 19.4542 18.0061H17.1154C16.7683 17.3972 16.1998 17 15.5574 17C14.5921 17 13.4567 18.2881 14.3246 19.3488C14.3246 19.3488 14.3429 19.3711 14.32 19.3999C13.4566 20.4876 14.5002 21.8 15.5572 21.8C16.2021 21.8 16.7725 21.3997 17.1192 20.7868H22.8806C23.2274 21.3997 23.7975 21.8 24.4427 21.8C25.4998 21.7999 26.5434 20.4876 25.68 19.3999ZM20 24C17.7909 24 16 25.7909 16 28V35H24V28C24 25.7909 22.2091 24 20 24Z" fill="#DFFFFD"/>
<path d="M20 7L20.3531 6.64602L20 6.29374L19.6469 6.64602L20 7ZM7 19.9688L6.64687 19.6148L6.5 19.7613V19.9688H7ZM33 19.9688H33.5V19.7613L33.3531 19.6148L33 19.9688ZM25.6754 19.3488L25.2884 19.0321L25.2875 19.0334L25.6754 19.3488ZM25.68 19.3999L26.0716 19.089L26.0705 19.0876L25.68 19.3999ZM22.8847 18.0061V18.5061H23.1753L23.3191 18.2536L22.8847 18.0061ZM20.24 18.008L20.2403 18.5081L20.2481 18.5079L20.24 18.008ZM20 18.008L20.0005 17.508L20.0005 17.508L20 18.008ZM19.9248 18.0079L19.9253 17.5079L19.9253 17.5079L19.9248 18.0079ZM19.4542 18.0061L19.4573 17.5061H19.4542V18.0061ZM17.1154 18.0061L16.681 18.2537L16.8249 18.5061H17.1154V18.0061ZM14.3246 19.3488L13.9376 19.6654L13.9377 19.6655L14.3246 19.3488ZM14.32 19.3999L13.9287 19.0886L13.9284 19.089L14.32 19.3999ZM17.1192 20.7868V20.2868H16.8276L16.6841 20.5406L17.1192 20.7868ZM22.8806 20.7868L23.3158 20.5406L23.1722 20.2868H22.8806V20.7868ZM24.4427 21.8L24.4427 22.3L24.4427 22.3L24.4427 21.8ZM16 35H15.5V35.5H16V35ZM24 35V35.5H24.5V35H24ZM19.6469 6.64602L6.64687 19.6148L7.35313 20.3227L20.3531 7.35398L19.6469 6.64602ZM33.3531 19.6148L20.3531 6.64602L19.6469 7.35398L32.6469 20.3227L33.3531 19.6148ZM33.5 35V19.9688H32.5V35H33.5ZM31 37.5C32.3807 37.5 33.5 36.3807 33.5 35H32.5C32.5 35.8284 31.8284 36.5 31 36.5V37.5ZM9 37.5H31V36.5H9V37.5ZM6.5 35C6.5 36.3807 7.61929 37.5 9 37.5V36.5C8.17157 36.5 7.5 35.8284 7.5 35H6.5ZM6.5 19.9688V35H7.5V19.9688H6.5ZM25.6754 19.3488C25.2875 19.0334 25.2873 19.0336 25.2871 19.0338C25.287 19.0339 25.2868 19.0341 25.2867 19.0343C25.2864 19.0346 25.2862 19.0349 25.2859 19.0353C25.2854 19.0359 25.2849 19.0365 25.2844 19.0372C25.2833 19.0385 25.2823 19.0398 25.2812 19.0412C25.2791 19.0439 25.2769 19.0468 25.2747 19.0497C25.2703 19.0556 25.2657 19.0621 25.2609 19.069C25.2515 19.0829 25.2413 19.0994 25.2313 19.1183C25.2115 19.1556 25.1896 19.2075 25.1775 19.2723C25.1499 19.4208 25.1852 19.5816 25.2895 19.7121L26.0705 19.0876C26.1061 19.1321 26.1379 19.1902 26.1552 19.2606C26.1724 19.3308 26.1714 19.3975 26.1607 19.4549C26.1504 19.5105 26.1316 19.555 26.1145 19.5872C26.1058 19.6036 26.0969 19.6181 26.0884 19.6306C26.0841 19.6369 26.0799 19.6428 26.0757 19.6484C26.0736 19.6512 26.0715 19.6539 26.0695 19.6565C26.0684 19.6579 26.0674 19.6592 26.0664 19.6604C26.0659 19.6611 26.0654 19.6617 26.0649 19.6623C26.0646 19.6627 26.0644 19.663 26.0641 19.6633C26.064 19.6635 26.0638 19.6637 26.0637 19.6638C26.0635 19.664 26.0633 19.6642 25.6754 19.3488ZM24.4428 17.5C24.7242 17.5 25.1048 17.7074 25.3276 18.0495C25.5291 18.3591 25.5582 18.7026 25.2884 19.0321L26.0623 19.6655C26.6607 18.9343 26.556 18.1034 26.1656 17.5038C25.7963 16.9367 25.1266 16.5 24.4428 16.5V17.5ZM23.3191 18.2536C23.6 17.7608 24.0215 17.5 24.4428 17.5V16.5C23.5789 16.5 22.8636 17.0333 22.4503 17.7585L23.3191 18.2536ZM20.546 18.5061H22.8847V17.5061H20.546V18.5061ZM20.24 18.008C20.2481 18.5079 20.2481 18.5079 20.2481 18.5079C20.2481 18.5079 20.248 18.5079 20.248 18.5079C20.248 18.5079 20.248 18.5079 20.248 18.5079C20.248 18.5079 20.248 18.5079 20.2481 18.5079C20.2481 18.5079 20.2481 18.5079 20.2482 18.5079C20.2484 18.5079 20.2487 18.5079 20.2491 18.5079C20.2499 18.5079 20.2511 18.5079 20.2528 18.5079C20.2562 18.5078 20.2614 18.5077 20.2682 18.5077C20.2819 18.5075 20.3021 18.5072 20.3282 18.507C20.3802 18.5065 20.4552 18.5061 20.546 18.5061V17.5061C20.4517 17.5061 20.3737 17.5065 20.319 17.507C20.2917 17.5073 20.2702 17.5075 20.2554 17.5077C20.248 17.5078 20.2422 17.5079 20.2383 17.508C20.2363 17.508 20.2348 17.508 20.2337 17.508C20.2332 17.508 20.2328 17.5081 20.2325 17.5081C20.2323 17.5081 20.2322 17.5081 20.2321 17.5081C20.2321 17.5081 20.232 17.5081 20.232 17.5081C20.232 17.5081 20.232 17.5081 20.232 17.5081C20.232 17.5081 20.232 17.5081 20.232 17.5081C20.2319 17.5081 20.2319 17.5081 20.24 18.008ZM19.9995 18.508C20.0467 18.5081 20.107 18.5081 20.1553 18.508C20.1795 18.508 20.2007 18.508 20.2159 18.508C20.2235 18.508 20.2296 18.508 20.2338 18.508C20.2359 18.508 20.2376 18.508 20.2387 18.508C20.2392 18.508 20.2396 18.508 20.2399 18.508C20.2401 18.508 20.2402 18.508 20.2402 18.508C20.2403 18.508 20.2403 18.508 20.2403 18.508C20.2403 18.508 20.2403 18.508 20.2403 18.508C20.2403 18.508 20.2403 18.508 20.2403 18.508C20.2403 18.508 20.2403 18.508 20.24 18.008C20.2397 17.508 20.2397 17.508 20.2396 17.508C20.2396 17.508 20.2396 17.508 20.2396 17.508C20.2396 17.508 20.2396 17.508 20.2396 17.508C20.2396 17.508 20.2396 17.508 20.2395 17.508C20.2395 17.508 20.2394 17.508 20.2392 17.508C20.239 17.508 20.2385 17.508 20.238 17.508C20.2369 17.508 20.2353 17.508 20.2332 17.508C20.2291 17.508 20.223 17.508 20.2154 17.508C20.2003 17.508 20.1791 17.508 20.155 17.508C20.1068 17.5081 20.0471 17.5081 20.0005 17.508L19.9995 18.508ZM19.9243 18.5079L19.9995 18.508L20.0005 17.508L19.9253 17.5079L19.9243 18.5079ZM19.4511 18.506C19.7224 18.5077 19.7749 18.5078 19.9244 18.5079L19.9253 17.5079C19.7777 17.5078 19.727 17.5077 19.4573 17.5061L19.4511 18.506ZM17.1154 18.5061H19.4542V17.5061H17.1154V18.5061ZM15.5574 17.5C15.9784 17.5 16.4001 17.7609 16.681 18.2537L17.5498 17.7584C17.1366 17.0335 16.4211 16.5 15.5574 16.5V17.5ZM14.7116 19.0322C14.4419 18.7026 14.471 18.3591 14.6726 18.0495C14.8953 17.7074 15.2759 17.5 15.5574 17.5V16.5C14.8736 16.5 14.2039 16.9367 13.8346 17.5038C13.4442 18.1034 13.3394 18.9343 13.9376 19.6654L14.7116 19.0322ZM14.7113 19.7111C14.8146 19.5813 14.8502 19.4211 14.8224 19.2721C14.8103 19.2071 14.7883 19.155 14.7683 19.1175C14.7581 19.0984 14.7478 19.0819 14.7383 19.0679C14.7335 19.0609 14.7289 19.0545 14.7244 19.0485C14.7222 19.0455 14.72 19.0427 14.7178 19.04C14.7167 19.0386 14.7157 19.0373 14.7146 19.0359C14.7141 19.0353 14.7136 19.0346 14.7131 19.034C14.7128 19.0337 14.7125 19.0334 14.7123 19.033C14.7122 19.0329 14.712 19.0326 14.7119 19.0326C14.7117 19.0323 14.7115 19.0321 14.3246 19.3488C13.9377 19.6655 13.9375 19.6653 13.9373 19.665C13.9373 19.665 13.9371 19.6647 13.9369 19.6646C13.9367 19.6642 13.9364 19.6639 13.9362 19.6636C13.9356 19.663 13.9351 19.6623 13.9346 19.6617C13.9336 19.6604 13.9325 19.6591 13.9315 19.6578C13.9294 19.6551 13.9273 19.6524 13.9252 19.6496C13.921 19.644 13.9167 19.638 13.9124 19.6317C13.9038 19.6191 13.8947 19.6045 13.8859 19.588C13.8686 19.5556 13.8497 19.5108 13.8393 19.455C13.8286 19.3974 13.8276 19.3306 13.8447 19.2607C13.8619 19.1906 13.8936 19.1327 13.9287 19.0886L14.7113 19.7111ZM15.5572 21.3C15.2257 21.3 14.8514 21.083 14.6445 20.7461C14.4544 20.4367 14.4276 20.0685 14.7116 19.7107L13.9284 19.089C13.349 19.8189 13.4123 20.6508 13.7924 21.2696C14.1557 21.8608 14.8318 22.3 15.5572 22.3V21.3ZM16.6841 20.5406C16.4031 21.0371 15.9798 21.3 15.5572 21.3V22.3C16.4245 22.3 17.1418 21.7623 17.5544 21.033L16.6841 20.5406ZM22.8806 20.2868H17.1192V21.2868H22.8806V20.2868ZM24.4427 21.3C24.0199 21.3 23.5967 21.0371 23.3158 20.5406L22.4454 21.033C22.858 21.7622 23.5752 22.3 24.4427 22.3V21.3ZM25.2884 19.7107C25.5724 20.0686 25.5456 20.4367 25.3555 20.746C25.1485 21.0829 24.7743 21.3 24.4426 21.3L24.4427 22.3C25.1682 22.2999 25.8443 21.8608 26.2075 21.2695C26.5877 20.6508 26.651 19.8189 26.0716 19.089L25.2884 19.7107ZM16.5 28C16.5 26.067 18.067 24.5 20 24.5V23.5C17.5147 23.5 15.5 25.5147 15.5 28H16.5ZM16.5 35V28H15.5V35H16.5ZM24 34.5H16V35.5H24V34.5ZM23.5 28V35H24.5V28H23.5ZM20 24.5C21.933 24.5 23.5 26.067 23.5 28H24.5C24.5 25.5147 22.4853 23.5 20 23.5V24.5Z" fill="black" mask="url(#path-2-inside-1_12_55)"/>
<mask id="path-4-inside-2_12_55" fill="white">
<path fill-rule="evenodd" clip-rule="evenodd" d="M21.4221 3.63872C21.4054 3.62084 21.3884 3.60319 21.371 3.58579C20.59 2.80474 19.3236 2.80474 18.5426 3.58579L3.41416 18.7142C2.63311 19.4953 2.63311 20.7616 3.41416 21.5426C4.19521 22.3237 5.46153 22.3237 6.24258 21.5426L19.9637 7.82147L33.5828 21.4406C34.3639 22.2216 35.6302 22.2216 36.4113 21.4406C37.1923 20.6595 37.1923 19.3932 36.4113 18.6121L21.5803 3.78116C21.5295 3.73038 21.4767 3.6829 21.4221 3.63872Z"/>
</mask>
<path fill-rule="evenodd" clip-rule="evenodd" d="M21.4221 3.63872C21.4054 3.62084 21.3884 3.60319 21.371 3.58579C20.59 2.80474 19.3236 2.80474 18.5426 3.58579L3.41416 18.7142C2.63311 19.4953 2.63311 20.7616 3.41416 21.5426C4.19521 22.3237 5.46153 22.3237 6.24258 21.5426L19.9637 7.82147L33.5828 21.4406C34.3639 22.2216 35.6302 22.2216 36.4113 21.4406C37.1923 20.6595 37.1923 19.3932 36.4113 18.6121L21.5803 3.78116C21.5295 3.73038 21.4767 3.6829 21.4221 3.63872Z" fill="#B6B6FD"/>
<path d="M21.371 3.58579L21.7246 3.23224L21.7246 3.23223L21.371 3.58579ZM21.4221 3.63872L21.056 3.97928L21.0801 4.00521L21.1076 4.02747L21.4221 3.63872ZM18.5426 3.58579L18.189 3.23223L18.189 3.23223L18.5426 3.58579ZM3.41416 18.7142L3.0606 18.3607L3.0606 18.3607L3.41416 18.7142ZM3.41416 21.5426L3.0606 21.8962L3.0606 21.8962L3.41416 21.5426ZM6.24258 21.5426L5.88903 21.1891L5.88903 21.1891L6.24258 21.5426ZM19.9637 7.82147L20.3173 7.46792L19.9637 7.11436L19.6102 7.46792L19.9637 7.82147ZM36.4113 18.6121L36.0577 18.9657L36.0577 18.9657L36.4113 18.6121ZM21.5803 3.78116L21.9338 3.4276L21.9338 3.4276L21.5803 3.78116ZM21.0174 3.93933C21.0306 3.95249 21.0434 3.96581 21.056 3.97928L21.7881 3.29816C21.7674 3.27588 21.7462 3.2539 21.7246 3.23224L21.0174 3.93933ZM18.8961 3.93934C19.4819 3.35355 20.4317 3.35355 21.0175 3.93934L21.7246 3.23223C20.7482 2.25592 19.1653 2.25592 18.189 3.23223L18.8961 3.93934ZM3.76771 19.0678L18.8961 3.93934L18.189 3.23223L3.0606 18.3607L3.76771 19.0678ZM3.76771 21.1891C3.18192 20.6033 3.18192 19.6535 3.76771 19.0678L3.0606 18.3607C2.08429 19.337 2.08429 20.9199 3.0606 21.8962L3.76771 21.1891ZM5.88903 21.1891C5.30324 21.7749 4.3535 21.7749 3.76771 21.1891L3.0606 21.8962C4.03691 22.8725 5.61982 22.8725 6.59614 21.8962L5.88903 21.1891ZM19.6102 7.46792L5.88903 21.1891L6.59614 21.8962L20.3173 8.17502L19.6102 7.46792ZM33.9364 21.087L20.3173 7.46792L19.6102 8.17502L33.2293 21.7941L33.9364 21.087ZM36.0577 21.087C35.4719 21.6728 34.5222 21.6728 33.9364 21.087L33.2293 21.7941C34.2056 22.7704 35.7885 22.7704 36.7648 21.7941L36.0577 21.087ZM36.0577 18.9657C36.6435 19.5515 36.6435 20.5012 36.0577 21.087L36.7648 21.7941C37.7411 20.8178 37.7411 19.2349 36.7648 18.2586L36.0577 18.9657ZM21.2267 4.13471L36.0577 18.9657L36.7648 18.2586L21.9338 3.4276L21.2267 4.13471ZM21.1076 4.02747C21.1486 4.06063 21.1884 4.09636 21.2267 4.13471L21.9338 3.4276C21.8706 3.3644 21.8047 3.30517 21.7365 3.24997L21.1076 4.02747Z" fill="black" mask="url(#path-4-inside-2_12_55)"/>
</svg>
