<svg width="20" height="24" viewBox="0 0 20 24" fill="none" xmlns="http://www.w3.org/2000/svg">
<path d="M14.4055 23.8007C13.9181 23.6788 13.3088 23.8007 12.9432 23.5569C11.3591 22.4602 10.0187 22.704 8.43456 23.6788C7.33786 24.2881 5.87558 24.0444 5.02259 22.8258C3.80403 21.1198 2.46361 19.4138 1.48876 17.4641C0.148339 14.4177 0.513907 11.6151 2.09804 8.81237C3.68217 6.13153 6.36301 5.27856 9.04384 6.61897C10.8717 7.59382 12.334 6.86266 13.9181 6.13152C15.8678 5.15667 17.9393 5.64412 19.1579 7.22825C19.5235 7.83754 19.7672 8.20306 19.036 8.9342C16.2334 11.3713 16.1115 13.9304 18.5486 16.6112C20.1328 18.439 20.1328 18.439 18.6705 20.3887C17.5738 21.9728 16.8426 24.0444 14.4055 23.8007Z" fill="black"/>
<path d="M15.3801 0.0389955C15.1364 2.59798 14.0396 4.42582 11.7244 5.52253C10.384 6.13181 9.65282 5.52251 9.89653 4.06024C10.1402 2.71982 10.8714 1.74497 11.8462 1.01383C13.0648 0.0389806 13.3085 -0.0828607 15.3801 0.0389955Z" fill="black"/>
</svg>
