<svg width="40" height="40" viewBox="0 0 40 40" fill="none" xmlns="http://www.w3.org/2000/svg">
<path d="M6 19.5L12 26.5L14 28.5L22 21.5V13L16 11H12L10 13H6V19.5Z" fill="#B6B6FD"/>
<path d="M30.3304 20.1099L30.2572 20.0367H30.1536H29.674V8.87906C29.674 7.48373 28.5393 6.34907 27.144 6.34907H17.7118V4.75999C17.7118 4.48007 17.9418 4.25 18.2218 4.25H38.24C38.5199 4.25 38.75 4.48008 38.75 4.75999V19.5267C38.75 19.8126 38.5215 20.0367 38.24 20.0367H36.4768H36.2268V20.2867V24.7783C36.2268 24.9834 36.1036 25.17 35.9138 25.2449L35.9138 25.2449L35.9095 25.2467C35.8438 25.274 35.7776 25.2883 35.7168 25.2883C35.5881 25.2883 35.4534 25.2328 35.354 25.1334L30.3304 20.1099Z" fill="#DFFFFD" stroke="black" stroke-width="0.5"/>
<path d="M21.6254 16.2199C21.6252 14.983 21.1426 13.8255 20.2678 12.9507C18.6953 11.3782 16.2484 11.1769 14.4519 12.3677C12.6558 11.1768 10.209 11.3703 8.62882 12.9427L8.62838 12.9431C7.75306 13.8185 7.27076 14.984 7.27076 16.2207C7.27076 17.4578 7.75338 18.6157 8.62838 19.4907L13.7334 24.5957C13.9325 24.8038 14.1989 24.8914 14.4519 24.8914C14.6987 24.8914 14.9644 24.8029 15.1627 24.5958L20.2753 19.4908L20.2754 19.4907C21.1502 18.6159 21.6333 17.4579 21.6254 16.2199ZM21.6254 16.2199C21.6254 16.2202 21.6254 16.2204 21.6254 16.2207H21.3754L21.6254 16.2191C21.6254 16.2194 21.6254 16.2196 21.6254 16.2199ZM4.44959 28.373V28.123H4.19959H1.75999C1.48008 28.123 1.25 27.8929 1.25 27.613V8.87913C1.25 8.59922 1.48008 8.36914 1.75999 8.36914H27.1438C27.4237 8.36914 27.6538 8.59922 27.6538 8.87913V27.613C27.6538 27.8929 27.4237 28.123 27.1438 28.123H11.9211H11.8176L11.7443 28.1962L5.31482 34.6258C5.21811 34.7225 5.09205 34.773 4.95959 34.773C4.89992 34.773 4.83276 34.7593 4.75507 34.7296C4.57312 34.6549 4.44959 34.4686 4.44959 34.263V28.373Z" fill="#DFFFFD" stroke="black" stroke-width="0.5"/>
</svg>
