<svg width="40" height="34" viewBox="0 0 40 34" fill="none" xmlns="http://www.w3.org/2000/svg">
<mask id="path-1-outside-1_18_18" maskUnits="userSpaceOnUse" x="0" y="0" width="40" height="34" fill="black">
<rect fill="white" width="40" height="34"/>
<path fill-rule="evenodd" clip-rule="evenodd" d="M21.2444 1.07348L21.2119 1.08216C20.76 1.04108 20.267 1 19.8151 1C14.0638 1.04108 9.62703 4.94378 8.18919 6.38162L8.14811 6.4227C6.75135 7.81946 5.80649 9.58594 5.35459 11.4346L5.31351 11.3524C2.60216 13.3243 1 16.4465 1 19.733C1 25.32 5.56 29.88 11.147 29.88L19.0346 29.9211C20.5278 29.9158 20.6387 29.9158 22.28 29.9158C23.9213 29.9158 25.5254 29.9211 25.5254 29.9211H28.8941C29.1816 31.4411 30.5373 32.5913 32.1395 32.5913C33.947 32.5913 35.4259 31.1124 35.4259 29.3049C35.4259 27.4973 33.947 26.0184 32.1395 26.0184C31.8108 26.0184 31.5232 26.3059 31.5232 26.6346C31.5232 26.9632 31.8108 27.2508 32.1395 27.2508C33.2897 27.2508 34.1935 28.1546 34.1935 29.3049C34.1935 30.4551 33.2897 31.3589 32.1395 31.3589C31.2357 31.3589 30.4551 30.7427 30.2086 29.9211H32.1395C32.4681 29.9211 32.7557 29.6335 32.7557 29.3049C32.7557 28.9762 32.4681 28.6886 32.1395 28.6886H25.5665C25.5665 28.6886 23.9624 28.6914 22.3211 28.6914C21.4758 28.6914 21.0255 28.6907 20.5892 28.69H20.589H20.5885H20.5877H20.5873C20.1771 28.6893 19.7788 28.6886 19.0757 28.6886L11.1881 28.6476C6.25838 28.6476 2.27351 24.6216 2.27351 19.733C2.27351 17.227 3.34162 14.8443 5.14919 13.16C5.10811 13.4476 5.10811 13.7351 5.10811 14.0638C5.10811 20.0616 9.99676 24.9503 15.9946 24.9503C19.6508 24.9503 23.1838 22.9373 25.1968 19.733L27.6205 22.1568C30.0443 24.5805 33.9881 24.5805 36.4119 22.1568L37.1924 21.3762C38.3838 20.1849 39 18.6238 39 16.9805C38.9589 15.3373 38.3427 13.7351 37.1514 12.5849L32.4601 7.8936L27.8266 3.74059C25.0383 1.41481 22.0182 1.11263 21.2444 1.07348ZM30.4796 11.4255C29.9054 10.8508 29.1285 10.5465 28.3178 10.5465C27.5071 10.5465 26.7303 10.8508 26.156 11.4255C25.5818 12.0002 25.2778 12.7778 25.2778 13.5892C25.2778 14.4006 25.5818 15.1782 26.156 15.7529L29.5676 19.1675C30.1756 19.7761 30.9525 20.0465 31.7294 20.0465C32.5062 20.0465 33.2831 19.7422 33.8911 19.1675C35.0734 17.9842 35.0734 16.0572 33.8911 14.8739L30.4796 11.4255Z"/>
</mask>
<path fill-rule="evenodd" clip-rule="evenodd" d="M21.2444 1.07348L21.2119 1.08216C20.76 1.04108 20.267 1 19.8151 1C14.0638 1.04108 9.62703 4.94378 8.18919 6.38162L8.14811 6.4227C6.75135 7.81946 5.80649 9.58594 5.35459 11.4346L5.31351 11.3524C2.60216 13.3243 1 16.4465 1 19.733C1 25.32 5.56 29.88 11.147 29.88L19.0346 29.9211C20.5278 29.9158 20.6387 29.9158 22.28 29.9158C23.9213 29.9158 25.5254 29.9211 25.5254 29.9211H28.8941C29.1816 31.4411 30.5373 32.5913 32.1395 32.5913C33.947 32.5913 35.4259 31.1124 35.4259 29.3049C35.4259 27.4973 33.947 26.0184 32.1395 26.0184C31.8108 26.0184 31.5232 26.3059 31.5232 26.6346C31.5232 26.9632 31.8108 27.2508 32.1395 27.2508C33.2897 27.2508 34.1935 28.1546 34.1935 29.3049C34.1935 30.4551 33.2897 31.3589 32.1395 31.3589C31.2357 31.3589 30.4551 30.7427 30.2086 29.9211H32.1395C32.4681 29.9211 32.7557 29.6335 32.7557 29.3049C32.7557 28.9762 32.4681 28.6886 32.1395 28.6886H25.5665C25.5665 28.6886 23.9624 28.6914 22.3211 28.6914C21.4758 28.6914 21.0255 28.6907 20.5892 28.69H20.589H20.5885H20.5877H20.5873C20.1771 28.6893 19.7788 28.6886 19.0757 28.6886L11.1881 28.6476C6.25838 28.6476 2.27351 24.6216 2.27351 19.733C2.27351 17.227 3.34162 14.8443 5.14919 13.16C5.10811 13.4476 5.10811 13.7351 5.10811 14.0638C5.10811 20.0616 9.99676 24.9503 15.9946 24.9503C19.6508 24.9503 23.1838 22.9373 25.1968 19.733L27.6205 22.1568C30.0443 24.5805 33.9881 24.5805 36.4119 22.1568L37.1924 21.3762C38.3838 20.1849 39 18.6238 39 16.9805C38.9589 15.3373 38.3427 13.7351 37.1514 12.5849L32.4601 7.8936L27.8266 3.74059C25.0383 1.41481 22.0182 1.11263 21.2444 1.07348ZM30.4796 11.4255C29.9054 10.8508 29.1285 10.5465 28.3178 10.5465C27.5071 10.5465 26.7303 10.8508 26.156 11.4255C25.5818 12.0002 25.2778 12.7778 25.2778 13.5892C25.2778 14.4006 25.5818 15.1782 26.156 15.7529L29.5676 19.1675C30.1756 19.7761 30.9525 20.0465 31.7294 20.0465C32.5062 20.0465 33.2831 19.7422 33.8911 19.1675C35.0734 17.9842 35.0734 16.0572 33.8911 14.8739L30.4796 11.4255Z" fill="#DFFFFD"/>
<path d="M10.9381 28.6476V29.2638H11.4381V28.6476H10.9381ZM21.2444 1.07348L21.2697 0.574115L21.1912 0.570145L21.1153 0.59042L21.2444 1.07348ZM21.2119 1.08216L21.1666 1.58011L21.2551 1.58815L21.341 1.56522L21.2119 1.08216ZM19.8151 1V0.499987L19.8116 0.500013L19.8151 1ZM8.18919 6.38162L7.83564 6.02807L7.83563 6.02807L8.18919 6.38162ZM8.14811 6.4227L8.50166 6.77626L8.50167 6.77625L8.14811 6.4227ZM5.35459 11.4346L4.90738 11.6582L5.51675 12.8769L5.84029 11.5533L5.35459 11.4346ZM5.31351 11.3524L5.76073 11.1288L5.49677 10.6009L5.01943 10.9481L5.31351 11.3524ZM11.147 29.88L11.1496 29.38H11.147V29.88ZM19.0346 29.9211L19.032 30.4211L19.0363 30.4211L19.0346 29.9211ZM25.5254 29.9211L25.5238 30.4211H25.5254V29.9211ZM28.8941 29.9211L29.3853 29.8281L29.3083 29.4211H28.8941V29.9211ZM30.2086 29.9211V29.4211H29.5366L29.7297 30.0648L30.2086 29.9211ZM25.5665 28.6886L25.5665 28.1886L25.5656 28.1886L25.5665 28.6886ZM20.5892 28.69L20.5901 28.19H20.5892V28.69ZM20.5873 28.69L20.5865 29.19H20.5873V28.69ZM19.0757 28.6886L19.0731 29.1886H19.0757V28.6886ZM11.1881 28.6476L11.1907 28.1476H11.1881V28.6476ZM5.14919 13.16L5.64416 13.2307L5.84445 11.8287L4.80833 12.7942L5.14919 13.16ZM25.1968 19.733L25.5503 19.3794L25.1069 18.936L24.7734 19.467L25.1968 19.733ZM36.4119 22.1568L36.0583 21.8032L36.0583 21.8032L36.4119 22.1568ZM37.1924 21.3762L37.546 21.7298L37.546 21.7298L37.1924 21.3762ZM39 16.9805H39.5002L39.4998 16.968L39 16.9805ZM37.1514 12.5849L36.7977 12.9385L36.8041 12.9446L37.1514 12.5849ZM32.4601 7.8936L32.8136 7.54005L32.804 7.53039L32.7938 7.52127L32.4601 7.8936ZM27.8266 3.74059L28.1603 3.36826L28.1537 3.36232L28.1469 3.35663L27.8266 3.74059ZM30.4796 11.4255L30.835 11.0739L30.8333 11.0721L30.4796 11.4255ZM26.156 11.4255L26.5097 11.7789L26.5097 11.7789L26.156 11.4255ZM26.156 15.7529L26.5097 15.3995L26.5097 15.3995L26.156 15.7529ZM29.5676 19.1675L29.2139 19.5209L29.2139 19.5209L29.5676 19.1675ZM33.8911 19.1675L34.2346 19.5309L34.2398 19.526L34.2449 19.5209L33.8911 19.1675ZM33.8911 14.8739L33.5357 15.2256L33.5374 15.2273L33.8911 14.8739ZM21.1153 0.59042L21.0828 0.599107L21.341 1.56522L21.3735 1.55653L21.1153 0.59042ZM21.2572 0.584215C20.8062 0.543223 20.2925 0.5 19.8151 0.5V1.5C20.2416 1.5 20.7138 1.53894 21.1666 1.58011L21.2572 0.584215ZM19.8116 0.500013C13.8513 0.542586 9.29128 4.57242 7.83564 6.02807L8.54274 6.73517C9.96277 5.31515 14.2762 1.53958 19.8187 1.49999L19.8116 0.500013ZM7.83563 6.02807L7.79455 6.06915L8.50167 6.77625L8.54275 6.73517L7.83563 6.02807ZM7.79456 6.06915C6.32896 7.53474 5.34109 9.38417 4.8689 11.3159L5.84029 11.5533C6.27189 9.78772 7.17374 8.10418 8.50166 6.77626L7.79456 6.06915ZM5.80181 11.211L5.76073 11.1288L4.8663 11.576L4.90738 11.6582L5.80181 11.211ZM5.01943 10.9481C2.18114 13.0123 0.5 16.2835 0.5 19.733H1.5C1.5 16.6094 3.02318 13.6364 5.6076 11.7568L5.01943 10.9481ZM0.5 19.733C0.5 25.5961 5.28386 30.38 11.147 30.38V29.38C5.83614 29.38 1.5 25.0439 1.5 19.733H0.5ZM11.1444 30.38L19.032 30.4211L19.0372 29.4211L11.1496 29.38L11.1444 30.38ZM19.0363 30.4211C20.5288 30.4158 20.6392 30.4158 22.28 30.4158V29.4158C20.6383 29.4158 20.5267 29.4158 19.0328 29.4211L19.0363 30.4211ZM22.28 30.4158C23.1002 30.4158 23.9111 30.4172 24.5171 30.4185C24.8201 30.4191 25.0718 30.4198 25.2477 30.4203C25.3357 30.4205 25.4047 30.4207 25.4518 30.4209C25.4753 30.4209 25.4933 30.421 25.5054 30.421C25.5115 30.421 25.5161 30.4211 25.5191 30.4211C25.5207 30.4211 25.5218 30.4211 25.5226 30.4211C25.523 30.4211 25.5233 30.4211 25.5235 30.4211C25.5236 30.4211 25.5237 30.4211 25.5237 30.4211C25.5237 30.4211 25.5237 30.4211 25.5238 30.4211C25.5238 30.4211 25.5238 30.4211 25.5254 29.9211C25.527 29.4211 25.527 29.4211 25.527 29.4211C25.527 29.4211 25.527 29.4211 25.527 29.4211C25.5269 29.4211 25.5268 29.4211 25.5267 29.4211C25.5265 29.4211 25.5262 29.4211 25.5259 29.4211C25.5251 29.4211 25.5239 29.4211 25.5224 29.4211C25.5193 29.4211 25.5147 29.421 25.5086 29.421C25.4964 29.421 25.4783 29.4209 25.4548 29.4209C25.4077 29.4207 25.3386 29.4205 25.2505 29.4203C25.0744 29.4198 24.8225 29.4191 24.5193 29.4185C23.9129 29.4172 23.1011 29.4158 22.28 29.4158V30.4158ZM25.5254 30.4211H28.8941V29.4211H25.5254V30.4211ZM28.4028 30.014C28.7348 31.7692 30.2961 33.0913 32.1395 33.0913V32.0913C30.7785 32.0913 29.6284 31.1129 29.3853 29.8281L28.4028 30.014ZM32.1395 33.0913C34.2232 33.0913 35.9259 31.3886 35.9259 29.3049H34.9259C34.9259 30.8363 33.6709 32.0913 32.1395 32.0913V33.0913ZM35.9259 29.3049C35.9259 27.2212 34.2232 25.5184 32.1395 25.5184V26.5184C33.6709 26.5184 34.9259 27.7734 34.9259 29.3049H35.9259ZM32.1395 25.5184C31.5347 25.5184 31.0232 26.0298 31.0232 26.6346H32.0232C32.0232 26.6174 32.0317 26.5868 32.0617 26.5568C32.0917 26.5268 32.1223 26.5184 32.1395 26.5184V25.5184ZM31.0232 26.6346C31.0232 27.2394 31.5347 27.7508 32.1395 27.7508V26.7508C32.1223 26.7508 32.0917 26.7424 32.0617 26.7124C32.0317 26.6824 32.0232 26.6518 32.0232 26.6346H31.0232ZM32.1395 27.7508C33.0136 27.7508 33.6935 28.4307 33.6935 29.3049H34.6935C34.6935 27.8784 33.5659 26.7508 32.1395 26.7508V27.7508ZM33.6935 29.3049C33.6935 30.179 33.0136 30.8589 32.1395 30.8589V31.8589C33.5659 31.8589 34.6935 30.7313 34.6935 29.3049H33.6935ZM32.1395 30.8589C31.4636 30.8589 30.8727 30.3945 30.6876 29.7774L29.7297 30.0648C30.0376 31.0909 31.0077 31.8589 32.1395 31.8589V30.8589ZM30.2086 30.4211H32.1395V29.4211H30.2086V30.4211ZM32.1395 30.4211C32.7442 30.4211 33.2557 29.9097 33.2557 29.3049H32.2557C32.2557 29.3221 32.2472 29.3527 32.2173 29.3827C32.1873 29.4127 32.1567 29.4211 32.1395 29.4211V30.4211ZM33.2557 29.3049C33.2557 28.7001 32.7442 28.1886 32.1395 28.1886V29.1886C32.1567 29.1886 32.1873 29.1971 32.2173 29.2271C32.2472 29.2571 32.2557 29.2877 32.2557 29.3049H33.2557ZM32.1395 28.1886H25.5665V29.1886H32.1395V28.1886ZM25.5665 28.6886C25.5656 28.1886 25.5656 28.1886 25.5656 28.1886C25.5656 28.1886 25.5656 28.1886 25.5656 28.1886C25.5655 28.1886 25.5654 28.1886 25.5653 28.1886C25.5651 28.1886 25.5649 28.1886 25.5645 28.1886C25.5637 28.1886 25.5625 28.1887 25.561 28.1887C25.5579 28.1887 25.5533 28.1887 25.5472 28.1887C25.5351 28.1887 25.5171 28.1887 25.4936 28.1888C25.4465 28.1888 25.3775 28.1889 25.2895 28.1891C25.1135 28.1893 24.8617 28.1897 24.5587 28.19C23.9526 28.1907 23.1415 28.1914 22.3211 28.1914V29.1914C23.142 29.1914 23.9535 29.1907 24.5598 29.19C24.863 29.1897 25.1149 29.1893 25.2909 29.1891C25.379 29.1889 25.4481 29.1888 25.4952 29.1888C25.5187 29.1887 25.5367 29.1887 25.5489 29.1887C25.555 29.1887 25.5596 29.1887 25.5627 29.1887C25.5642 29.1886 25.5654 29.1886 25.5662 29.1886C25.5666 29.1886 25.5669 29.1886 25.5671 29.1886C25.5671 29.1886 25.5672 29.1886 25.5673 29.1886C25.5673 29.1886 25.5673 29.1886 25.5673 29.1886C25.5673 29.1886 25.5673 29.1886 25.5665 28.6886ZM22.3211 28.1914C21.4762 28.1914 21.0262 28.1907 20.5901 28.19L20.5884 29.19C21.0249 29.1907 21.4754 29.1914 22.3211 29.1914V28.1914ZM20.5892 28.19H20.589V29.19H20.5892V28.19ZM20.589 28.19H20.5885V29.19H20.589V28.19ZM20.5885 28.19H20.5877V29.19H20.5885V28.19ZM20.5877 28.19H20.5873V29.19H20.5877V28.19ZM20.5881 28.19C20.1778 28.1893 19.7792 28.1886 19.0757 28.1886V29.1886C19.7784 29.1886 20.1764 29.1893 20.5865 29.19L20.5881 28.19ZM19.0783 28.1887L11.1907 28.1476L11.1855 29.1476L19.0731 29.1886L19.0783 28.1887ZM11.1881 28.1476C6.53602 28.1476 2.77351 24.347 2.77351 19.733H1.77351C1.77351 24.8963 5.98074 29.1476 11.1881 29.1476V28.1476ZM2.77351 19.733C2.77351 17.369 3.78159 15.1178 5.49005 13.5258L4.80833 12.7942C2.90165 14.5709 1.77351 17.0851 1.77351 19.733H2.77351ZM4.65421 13.0893C4.60722 13.4182 4.60811 13.7421 4.60811 14.0638H5.60811C5.60811 13.7282 5.60899 13.4769 5.64416 13.2307L4.65421 13.0893ZM4.60811 14.0638C4.60811 20.3378 9.72061 25.4503 15.9946 25.4503V24.4503C10.2729 24.4503 5.60811 19.7855 5.60811 14.0638H4.60811ZM15.9946 25.4503C19.8314 25.4503 23.5204 23.3415 25.6201 19.9989L24.7734 19.467C22.8472 22.5331 19.4702 24.4503 15.9946 24.4503V25.4503ZM24.8432 20.0865L27.267 22.5103L27.9741 21.8032L25.5503 19.3794L24.8432 20.0865ZM27.267 22.5103C29.886 25.1294 34.1464 25.1294 36.7654 22.5103L36.0583 21.8032C33.8298 24.0317 30.2026 24.0317 27.9741 21.8032L27.267 22.5103ZM36.7654 22.5103L37.546 21.7298L36.8389 21.0227L36.0583 21.8032L36.7654 22.5103ZM37.546 21.7298C38.8343 20.4415 39.5 18.7518 39.5 16.9805H38.5C38.5 18.4957 37.9333 19.9282 36.8389 21.0227L37.546 21.7298ZM39.4998 16.968C39.4559 15.2114 38.7966 13.4783 37.4986 12.2252L36.8041 12.9446C37.8888 13.9919 38.4619 15.4632 38.5002 16.993L39.4998 16.968ZM37.5049 12.2313L32.8136 7.54005L32.1065 8.24716L36.7978 12.9384L37.5049 12.2313ZM32.7938 7.52127L28.1603 3.36826L27.4929 4.11292L32.1264 8.26594L32.7938 7.52127ZM28.1469 3.35663C25.2403 0.93219 22.095 0.615873 21.2697 0.574115L21.2191 1.57284C21.9415 1.60939 24.8363 1.89744 27.5063 4.12455L28.1469 3.35663ZM28.3178 11.0465C29.0032 11.0465 29.6505 11.3031 30.1259 11.7789L30.8333 11.0721C30.1602 10.3984 29.2538 10.0465 28.3178 10.0465V11.0465ZM26.5097 11.7789C26.9851 11.3031 27.6324 11.0465 28.3178 11.0465V10.0465C27.3819 10.0465 26.4754 10.3984 25.8023 11.0721L26.5097 11.7789ZM25.7778 13.5892C25.7778 12.9028 26.0344 12.2547 26.5097 11.7789L25.8023 11.0721C25.1292 11.7458 24.7778 12.6528 24.7778 13.5892H25.7778ZM26.5097 15.3995C26.0344 14.9237 25.7778 14.2756 25.7778 13.5892H24.7778C24.7778 14.5256 25.1292 15.4326 25.8023 16.1063L26.5097 15.3995ZM29.9213 18.8141L26.5097 15.3995L25.8023 16.1063L29.2139 19.5209L29.9213 18.8141ZM31.7294 19.5465C31.0703 19.5465 30.4255 19.3188 29.9213 18.8141L29.2139 19.5209C29.9256 20.2333 30.8346 20.5465 31.7294 20.5465V19.5465ZM33.5477 18.8042C33.0303 19.2932 32.3755 19.5465 31.7294 19.5465V20.5465C32.637 20.5465 33.536 20.1913 34.2346 19.5309L33.5477 18.8042ZM33.5374 15.2273C34.5246 16.2154 34.5246 17.8261 33.5374 18.8141L34.2449 19.5209C35.6221 18.1424 35.6221 15.899 34.2449 14.5205L33.5374 15.2273ZM30.1241 11.7772L33.5357 15.2256L34.2466 14.5223L30.835 11.0739L30.1241 11.7772Z" fill="black" mask="url(#path-1-outside-1_18_18)"/>
<mask id="path-3-inside-2_18_18" fill="white">
<path d="M10.542 18.9479C7.67089 16.0758 7.67089 11.3874 10.542 8.5153C13.4131 5.60094 18.0998 5.60093 21.0131 8.47307C22.4065 9.86689 23.1665 11.7253 23.1665 13.7105C23.1665 15.6956 22.4065 17.5541 21.0131 18.9479C19.6198 20.3417 17.762 21.102 15.7776 21.102C13.7931 21.102 11.9353 20.3417 10.542 18.9479Z"/>
</mask>
<path d="M10.542 18.9479C7.67089 16.0758 7.67089 11.3874 10.542 8.5153C13.4131 5.60094 18.0998 5.60093 21.0131 8.47307C22.4065 9.86689 23.1665 11.7253 23.1665 13.7105C23.1665 15.6956 22.4065 17.5541 21.0131 18.9479C19.6198 20.3417 17.762 21.102 15.7776 21.102C13.7931 21.102 11.9353 20.3417 10.542 18.9479Z" fill="#B6B6FD"/>
<path d="M10.542 8.5153L10.8956 8.8688L10.8982 8.8662L10.542 8.5153ZM10.542 18.9479L10.8956 18.5944L10.8956 18.5944L10.542 18.9479ZM21.0131 18.9479L20.6595 18.5944L20.6595 18.5944L21.0131 18.9479ZM21.0131 8.47307L21.3667 8.11957L21.3641 8.117L21.0131 8.47307ZM10.1884 8.16181C7.1221 11.2292 7.1221 16.234 10.1884 19.3014L10.8956 18.5944C8.21969 15.9175 8.21969 11.5457 10.8956 8.86879L10.1884 8.16181ZM10.1884 19.3014C11.677 20.7905 13.6626 21.602 15.7776 21.602V20.602C13.9236 20.602 12.1937 19.8929 10.8956 18.5944L10.1884 19.3014ZM15.7776 21.602C17.8925 21.602 19.8781 20.7905 21.3667 19.3014L20.6595 18.5944C19.3614 19.8929 17.6315 20.602 15.7776 20.602V21.602ZM21.3667 19.3014C22.8553 17.8123 23.6665 15.826 23.6665 13.7105H22.6665C22.6665 15.5652 21.9576 17.2959 20.6595 18.5944L21.3667 19.3014ZM23.6665 13.7105C23.6665 11.5949 22.8553 9.60871 21.3667 8.11958L20.6595 8.82656C21.9576 10.1251 22.6665 11.8557 22.6665 13.7105H23.6665ZM21.3641 8.117C18.2571 5.05395 13.2538 5.05025 10.1858 8.1644L10.8982 8.8662C13.5725 6.15163 17.9424 6.14792 20.6621 8.82913L21.3641 8.117Z" fill="black" mask="url(#path-3-inside-2_18_18)"/>
</svg>
