<svg width="12" height="24" viewBox="0 0 12 24" fill="none" xmlns="http://www.w3.org/2000/svg">
<path d="M3.06338 18.3386C2.94365 16.782 2.94364 15.2255 2.82391 13.5492C2.82391 12.711 2.4647 12.1123 1.50682 12.1123C0.908135 12.1123 0.309453 12.232 0.189717 11.3939C0.0699808 10.3163 -0.169491 9.11892 0.189717 8.0413C0.189717 7.92156 0.668663 7.68211 0.908135 7.68211C2.70417 8.04131 3.06338 7.08341 3.06338 5.64658C3.06338 1.81503 6.29625 -0.220496 10.487 0.018976C11.6844 0.138712 11.6844 1.09661 11.6844 1.93476C11.5646 2.77291 12.0436 3.97028 10.487 3.97028C9.16992 3.85055 8.21203 4.3295 8.21203 5.88607C8.21203 6.96369 8.33176 7.80182 9.64886 7.92156C11.5646 8.04129 11.2054 9.35841 11.2054 10.6755C11.3252 12.1123 10.6067 12.5913 9.28965 12.5913C7.97256 12.5913 7.73309 13.3097 7.73309 14.507C7.73309 17.1412 7.73308 19.6557 7.61335 22.2899C7.49361 23.9662 7.1344 24.0859 4.85942 23.9662C3.30285 23.9662 3.06338 23.2478 3.18312 21.9307C2.94364 20.8531 2.94365 19.6557 3.06338 18.3386Z" fill="black"/>
</svg>
