<svg width="35" height="33" viewBox="0 0 35 33" fill="none" xmlns="http://www.w3.org/2000/svg">
<mask id="path-1-inside-1_12_18" fill="white">
<path fill-rule="evenodd" clip-rule="evenodd" d="M29.2499 9.13158C30.6669 9.13158 31.8157 7.98284 31.8157 6.56579C31.8157 5.14874 30.6669 4 29.2499 4C27.8328 4 26.6841 5.14874 26.6841 6.56579C26.6841 7.98284 27.8328 9.13158 29.2499 9.13158ZM18.1316 20.25C19.3532 20.25 20.4751 19.8231 21.3563 19.1104C22.1139 20.3091 23.4509 21.1052 24.9738 21.1052C27.3355 21.1052 29.2501 19.1906 29.2501 16.8288C29.2501 14.4671 27.3355 12.5525 24.9738 12.5525C24.2034 12.5525 23.4807 12.7562 22.8564 13.1127C22.0754 11.2753 20.254 9.98687 18.1316 9.98687C15.2975 9.98687 13 12.2844 13 15.1184C13 17.9525 15.2975 20.25 18.1316 20.25Z"/>
</mask>
<path fill-rule="evenodd" clip-rule="evenodd" d="M29.2499 9.13158C30.6669 9.13158 31.8157 7.98284 31.8157 6.56579C31.8157 5.14874 30.6669 4 29.2499 4C27.8328 4 26.6841 5.14874 26.6841 6.56579C26.6841 7.98284 27.8328 9.13158 29.2499 9.13158ZM18.1316 20.25C19.3532 20.25 20.4751 19.8231 21.3563 19.1104C22.1139 20.3091 23.4509 21.1052 24.9738 21.1052C27.3355 21.1052 29.2501 19.1906 29.2501 16.8288C29.2501 14.4671 27.3355 12.5525 24.9738 12.5525C24.2034 12.5525 23.4807 12.7562 22.8564 13.1127C22.0754 11.2753 20.254 9.98687 18.1316 9.98687C15.2975 9.98687 13 12.2844 13 15.1184C13 17.9525 15.2975 20.25 18.1316 20.25Z" fill="#B6B6FD"/>
<path d="M21.3563 19.1104L21.779 18.8433L21.4788 18.3683L21.0419 18.7217L21.3563 19.1104ZM22.8564 13.1127L22.3962 13.3083L22.6161 13.8257L23.1043 13.5469L22.8564 13.1127ZM31.3157 6.56579C31.3157 7.70669 30.3908 8.63158 29.2499 8.63158V9.63158C30.9431 9.63158 32.3157 8.25898 32.3157 6.56579H31.3157ZM29.2499 4.5C30.3908 4.5 31.3157 5.42489 31.3157 6.56579H32.3157C32.3157 4.8726 30.9431 3.5 29.2499 3.5V4.5ZM27.1841 6.56579C27.1841 5.42489 28.109 4.5 29.2499 4.5V3.5C27.5567 3.5 26.1841 4.8726 26.1841 6.56579H27.1841ZM29.2499 8.63158C28.109 8.63158 27.1841 7.70669 27.1841 6.56579H26.1841C26.1841 8.25898 27.5567 9.63158 29.2499 9.63158V8.63158ZM21.0419 18.7217C20.2464 19.365 19.2346 19.75 18.1316 19.75V20.75C19.4718 20.75 20.7038 20.2813 21.6708 19.4992L21.0419 18.7217ZM24.9738 20.6052C23.6295 20.6052 22.4488 19.9031 21.779 18.8433L20.9337 19.3776C21.779 20.7151 23.2723 21.6052 24.9738 21.6052V20.6052ZM28.7501 16.8288C28.7501 18.9145 27.0594 20.6052 24.9738 20.6052V21.6052C27.6117 21.6052 29.7501 19.4667 29.7501 16.8288H28.7501ZM24.9738 13.0525C27.0594 13.0525 28.7501 14.7432 28.7501 16.8288H29.7501C29.7501 14.191 27.6117 12.0525 24.9738 12.0525V13.0525ZM23.1043 13.5469C23.6551 13.2324 24.2927 13.0525 24.9738 13.0525V12.0525C24.1142 12.0525 23.3062 12.2801 22.6084 12.6785L23.1043 13.5469ZM18.1316 10.4869C20.0464 10.4869 21.6909 11.6489 22.3962 13.3083L23.3165 12.9171C22.4599 10.9017 20.4615 9.48687 18.1316 9.48687V10.4869ZM13.5 15.1184C13.5 12.5605 15.5736 10.4869 18.1316 10.4869V9.48687C15.0213 9.48687 12.5 12.0082 12.5 15.1184H13.5ZM18.1316 19.75C15.5736 19.75 13.5 17.6764 13.5 15.1184H12.5C12.5 18.2287 15.0213 20.75 18.1316 20.75V19.75Z" fill="black" mask="url(#path-1-inside-1_12_18)"/>
<mask id="path-3-inside-2_12_18" fill="white">
<path fill-rule="evenodd" clip-rule="evenodd" d="M6.98687 4.89292C6.98687 3.2844 8.27301 2 9.83555 2C11.3981 2 12.6842 3.2844 12.6842 4.89292C12.6842 5.44521 13.1319 5.89292 13.6842 5.89292C14.2365 5.89292 14.6842 5.44521 14.6842 4.89292C14.6842 2.20144 12.5241 0 9.83555 0C7.14695 0 4.98687 2.20144 4.98687 4.89292V11.4653C4.06659 11.855 3.42097 12.7666 3.42097 13.8289V16.3947H1.71053C0.765828 16.3947 0 17.1605 0 18.1052C0 19.0499 0.765825 19.8158 1.71052 19.8158H1.7106V21.6448C1.7106 27.7199 6.63546 32.6448 12.7106 32.6448H21.5001C27.5752 32.6448 32.5001 27.7199 32.5001 21.6448V19.8158C33.4447 19.8157 34.2105 19.0499 34.2105 18.1052C34.2105 17.1605 33.4447 16.3947 32.5 16.3947H8.55255V13.8289C8.55255 12.7667 7.90703 11.8552 6.98687 11.4654V4.89292Z"/>
</mask>
<path fill-rule="evenodd" clip-rule="evenodd" d="M6.98687 4.89292C6.98687 3.2844 8.27301 2 9.83555 2C11.3981 2 12.6842 3.2844 12.6842 4.89292C12.6842 5.44521 13.1319 5.89292 13.6842 5.89292C14.2365 5.89292 14.6842 5.44521 14.6842 4.89292C14.6842 2.20144 12.5241 0 9.83555 0C7.14695 0 4.98687 2.20144 4.98687 4.89292V11.4653C4.06659 11.855 3.42097 12.7666 3.42097 13.8289V16.3947H1.71053C0.765828 16.3947 0 17.1605 0 18.1052C0 19.0499 0.765825 19.8158 1.71052 19.8158H1.7106V21.6448C1.7106 27.7199 6.63546 32.6448 12.7106 32.6448H21.5001C27.5752 32.6448 32.5001 27.7199 32.5001 21.6448V19.8158C33.4447 19.8157 34.2105 19.0499 34.2105 18.1052C34.2105 17.1605 33.4447 16.3947 32.5 16.3947H8.55255V13.8289C8.55255 12.7667 7.90703 11.8552 6.98687 11.4654V4.89292Z" fill="#DFFFFD"/>
<path d="M4.98687 11.4653L5.18187 11.9257L5.48687 11.7965V11.4653H4.98687ZM3.42097 16.3947V16.8947H3.92097V16.3947H3.42097ZM1.7106 19.8158H2.2106V19.3158H1.7106V19.8158ZM32.5001 19.8158L32.5001 19.3158L32.0001 19.3158V19.8158H32.5001ZM8.55255 16.3947H8.05255V16.8947H8.55255V16.3947ZM6.98687 11.4654H6.48687V11.7965L6.79182 11.9257L6.98687 11.4654ZM9.83555 1.5C7.99206 1.5 6.48687 3.01309 6.48687 4.89292H7.48687C7.48687 3.55571 8.55396 2.5 9.83555 2.5V1.5ZM13.1842 4.89292C13.1842 3.01309 11.679 1.5 9.83555 1.5V2.5C11.1171 2.5 12.1842 3.55571 12.1842 4.89292H13.1842ZM13.6842 5.39292C13.4081 5.39292 13.1842 5.16906 13.1842 4.89292H12.1842C12.1842 5.72135 12.8558 6.39292 13.6842 6.39292V5.39292ZM14.1842 4.89292C14.1842 5.16906 13.9604 5.39292 13.6842 5.39292V6.39292C14.5127 6.39292 15.1842 5.72135 15.1842 4.89292H14.1842ZM9.83555 0.5C12.2423 0.5 14.1842 2.47184 14.1842 4.89292H15.1842C15.1842 1.93104 12.806 -0.5 9.83555 -0.5V0.5ZM5.48687 4.89292C5.48687 2.47184 7.4288 0.5 9.83555 0.5V-0.5C6.86511 -0.5 4.48687 1.93104 4.48687 4.89292H5.48687ZM5.48687 11.4653V4.89292H4.48687V11.4653H5.48687ZM4.79186 11.0049C3.69324 11.4702 2.92097 12.5588 2.92097 13.8289H3.92097C3.92097 12.9744 4.43993 12.2399 5.18187 11.9257L4.79186 11.0049ZM2.92097 13.8289V16.3947H3.92097V13.8289H2.92097ZM3.42097 15.8947H1.71053V16.8947H3.42097V15.8947ZM1.71053 15.8947C0.489686 15.8947 -0.5 16.8844 -0.5 18.1052H0.5C0.5 17.4367 1.04197 16.8947 1.71053 16.8947V15.8947ZM-0.5 18.1052C-0.5 19.3261 0.489681 20.3158 1.71052 20.3158V19.3158C1.04197 19.3158 0.5 18.7738 0.5 18.1052H-0.5ZM1.71052 20.3158H1.7106V19.3158H1.71052V20.3158ZM1.2106 19.8158V21.6448H2.2106V19.8158H1.2106ZM1.2106 21.6448C1.2106 27.9961 6.35932 33.1448 12.7106 33.1448V32.1448C6.9116 32.1448 2.2106 27.4438 2.2106 21.6448H1.2106ZM12.7106 33.1448H21.5001V32.1448H12.7106V33.1448ZM21.5001 33.1448C27.8513 33.1448 33.0001 27.9961 33.0001 21.6448H32.0001C32.0001 27.4438 27.2991 32.1448 21.5001 32.1448V33.1448ZM33.0001 21.6448V19.8158H32.0001V21.6448H33.0001ZM32.5001 20.3158C33.7209 20.3157 34.7105 19.326 34.7105 18.1052H33.7105C33.7105 18.7738 33.1686 19.3157 32.5001 19.3158L32.5001 20.3158ZM34.7105 18.1052C34.7105 16.8844 33.7208 15.8947 32.5 15.8947V16.8947C33.1686 16.8947 33.7105 17.4367 33.7105 18.1052H34.7105ZM32.5 15.8947H8.55255V16.8947H32.5V15.8947ZM9.05255 16.3947V13.8289H8.05255V16.3947H9.05255ZM9.05255 13.8289C9.05255 12.5589 8.28039 11.4704 7.18191 11.005L6.79182 11.9257C7.53366 12.24 8.05255 12.9745 8.05255 13.8289H9.05255ZM6.48687 4.89292V11.4654H7.48687V4.89292H6.48687Z" fill="black" mask="url(#path-3-inside-2_12_18)"/>
</svg>
