<svg width="40" height="40" viewBox="0 0 40 40" fill="none" xmlns="http://www.w3.org/2000/svg">
<path d="M22.4736 16.5588L22.4734 16.5587C22.3236 16.4085 22.2257 16.3306 22.0825 16.2194L22.0821 16.2191C21.5504 15.8044 20.9171 15.5464 20.1779 15.4392L20.1778 15.4391C19.8783 15.3955 19.5465 15.3821 19.1708 15.3877C18.7982 15.3932 18.4017 15.4199 17.9533 15.4757C17.48 15.5354 17.0926 15.5964 16.0342 15.7808L16.0342 15.7808C14.6609 16.0199 13.9671 16.1123 13.1928 16.1633L13.1764 15.9139L13.1928 16.1633C12.6317 16.2003 12.1288 16.2025 11.5537 16.1633L11.5536 16.1633C10.3416 16.0803 9.2155 16.2095 8.18348 16.5482C7.29469 16.8407 6.54387 17.2588 5.90683 17.8164L5.90628 17.8169C5.79416 17.9145 5.51961 18.1888 5.42649 18.2966L5.42568 18.2976L5.42568 18.2976C4.80063 19.0141 4.41826 19.8081 4.29377 20.6941L22.4736 16.5588ZM22.4736 16.5588C23.145 17.231 23.6057 17.9685 23.8367 18.7126L23.8367 18.7126C24.0714 19.4679 24.1082 20.2961 23.9369 21.3972L22.4736 16.5588ZM4.49668 22.8095L4.49673 22.8096C4.82871 23.6927 5.4601 24.4103 6.60351 25.1798L6.60392 25.1801C6.95855 25.4197 7.42392 25.7081 8.19287 26.1439L8.19323 26.1441C9.2927 26.7696 9.88296 27.1506 10.3909 27.5562C11.1222 28.1398 11.7776 28.9052 12.4311 29.9457C12.4312 29.9458 12.4312 29.946 12.4313 29.9461L12.2196 30.079L4.49668 22.8095ZM4.49668 22.8095C4.26958 22.2065 4.19256 21.4176 4.29375 20.6942L4.49668 22.8095Z" fill="#DFFFFD" stroke="black" stroke-width="0.5"/>
<path d="M26.3657 10.7838L26.3657 10.7838C26.06 11.1932 25.6639 11.5902 25.2707 11.9131C24.2095 12.7839 22.9953 13.1973 21.9419 13.0672C21.8195 13.0519 21.5967 13.0147 21.4937 12.9846L21.4929 12.9844C21.1467 12.8846 20.8198 12.7044 20.5345 12.4718C20.4524 12.4045 20.2853 12.2486 20.2231 12.1769C19.8794 11.7798 19.6384 11.2897 19.5214 10.7203L19.5213 10.7199C19.2251 9.28976 19.6914 7.55821 20.7903 6.14202C20.9682 5.91317 21.0472 5.8342 21.299 5.58245C21.32 5.56143 21.3422 5.53921 21.3658 5.51559C21.6613 5.2204 21.7089 5.1739 21.9382 4.99491C22.7304 4.37981 23.6004 4.00708 24.4427 3.92803C24.559 3.91738 24.9524 3.91775 25.062 3.9279C25.4399 3.96709 25.7494 4.05507 26.057 4.20932C26.5769 4.4706 27.006 4.90549 27.2814 5.45172L27.2815 5.45177C27.5426 5.96945 27.6729 6.61177 27.6527 7.28093C27.6149 8.47669 27.1694 9.70793 26.3657 10.7838Z" fill="#B6B6FD" stroke="black" stroke-width="0.5"/>
<path d="M34.8031 24.0816L34.8027 24.081C34.7024 23.9295 34.6389 23.8407 34.5062 23.7008C34.1396 23.3168 33.6748 23.0462 33.0896 22.8444C32.6281 22.6863 32.2002 22.6012 31.6847 22.5873L31.6842 22.5873C31.6739 22.587 31.6637 22.5867 31.6535 22.5864C31.5036 22.5821 31.3781 22.5784 31.2378 22.587C30.1441 22.6544 29.0056 23.0657 28.1415 23.7111L28.1414 23.7111C27.0544 24.5221 26.4567 25.6202 26.4567 26.6684C26.4567 27.2814 26.6683 27.8697 27.0661 28.3495L27.0666 28.35C27.067 28.3505 27.0725 28.3567 27.0866 28.3712C27.1004 28.3853 27.1181 28.4031 27.1391 28.4238C27.1716 28.456 27.2096 28.493 27.2488 28.5312C27.2601 28.5422 27.2715 28.5533 27.2829 28.5644L27.283 28.5645C27.4721 28.7491 27.5281 28.7994 27.6987 28.9151C28.3211 29.3354 29.1546 29.5789 30.0178 29.5939C30.4707 29.6015 30.8422 29.5756 31.2631 29.4904M34.8031 24.0816L31.3128 29.7354M34.8031 24.0816C34.934 24.2783 35.0192 24.4704 35.0983 24.7077L35.0986 24.7085C35.1949 24.9943 35.2305 25.2325 35.2305 25.5491M34.8031 24.0816L35.3355 24.6286M31.2631 29.4904L31.3128 29.7354M31.2631 29.4904C31.2631 29.4904 31.2631 29.4904 31.2631 29.4904L31.3128 29.7354M31.2631 29.4904C32.2586 29.2887 33.1428 28.851 33.8723 28.2119L33.8726 28.2116C33.9969 28.1031 34.3117 27.7783 34.4021 27.6659L34.4023 27.6657C34.961 26.9724 35.2296 26.263 35.2305 25.5491M31.3128 29.7354C32.3499 29.5253 33.274 29.0684 34.037 28.3999C34.171 28.283 34.4964 27.9477 34.597 27.8225C35.1844 27.0936 35.4795 26.3306 35.4805 25.5495M35.2305 25.5491C35.2305 25.5492 35.2305 25.5494 35.2305 25.5495H35.4805M35.2305 25.5491L35.4805 25.5495M35.4805 25.5495C35.4805 25.2085 35.4414 24.9429 35.3355 24.6286M35.3355 24.6286C35.2516 24.3769 35.1577 24.1632 35.0112 23.9431C34.9063 23.7845 34.8338 23.6828 34.6873 23.5285C34.2862 23.1083 33.7835 22.8192 33.1709 22.608C32.6873 22.4423 32.2343 22.352 31.6914 22.3374C31.6804 22.3371 31.6694 22.3368 31.6585 22.3365C31.5107 22.3321 31.3744 22.3282 31.2224 22.3374L35.3355 24.6286Z" fill="#B6B6FD" stroke="black" stroke-width="0.5"/>
<path d="M11.629 12.7493L11.6294 12.7494C12.7212 13.3043 14.1064 13.0323 15.2801 11.9412C16.0001 11.2717 16.551 10.3557 16.833 9.35008L11.629 12.7493ZM11.629 12.7493C11.4859 12.6768 11.3978 12.6096 11.2358 12.4855M11.629 12.7493L11.2358 12.4855M14.1266 4.48897L14.1259 4.489C13.7764 4.50451 13.4146 4.57671 13.0533 4.72264C12.7734 4.83667 12.4257 5.0295 12.1524 5.2328C11.9506 5.38399 11.906 5.42846 11.6391 5.69613L11.6388 5.69637C11.3714 5.96379 11.328 6.01913 11.1573 6.24717L11.1571 6.24743C10.336 7.34141 9.90569 8.75708 10.0151 10.0275L14.1266 4.48897ZM14.1266 4.48897C14.7007 4.46194 15.2363 4.6098 15.7051 4.932L14.1266 4.48897ZM11.2358 12.4855L11.0837 12.684M11.2358 12.4855L11.0837 12.684M11.0837 12.684L11.2361 12.4857C11.1335 12.4069 10.9112 12.208 10.8409 12.1251M11.0837 12.684L10.8409 12.1251M16.3336 5.54456C17.0282 6.4657 17.2343 7.91716 16.833 9.35001L16.3336 5.54456ZM16.3336 5.54456C16.1507 5.30354 15.9292 5.08611 15.7051 4.93202L16.3336 5.54456ZM10.8409 12.1251C10.3781 11.5758 10.0873 10.8631 10.0152 10.0275L10.8409 12.1251Z" fill="#B6B6FD" stroke="black" stroke-width="0.5"/>
<path d="M35.1732 13.0339L35.1732 13.0339C35.0971 12.9338 34.8456 12.6854 34.7272 12.5889C34.182 12.1453 33.4879 11.877 32.6474 11.8141L32.6465 11.8141C32.5027 11.8028 32.1438 11.8042 31.9774 11.8144L35.1732 13.0339ZM35.1732 13.0339C35.6964 13.7212 35.8687 14.5559 35.6696 15.5199C35.5118 16.2745 35.131 17.0394 34.5132 17.7736L34.5126 17.7743C34.4228 17.8817 34.0589 18.2422 33.9248 18.3612L33.9244 18.3616C32.3326 19.7811 30.2058 20.4074 28.5035 19.9838L28.5034 19.9838M35.1732 13.0339L28.5034 19.9838M26.2171 16.4487L26.2171 16.4491C26.021 17.4507 26.2435 18.3528 26.8438 19.0322L26.2171 16.4487ZM26.2171 16.4487C26.3668 15.6788 26.7426 14.9154 27.3539 14.1792C27.461 14.0509 27.8443 13.6733 27.9962 13.5378M26.2171 16.4487L27.9962 13.5378M28.5034 19.9838C27.8274 19.8159 27.2333 19.472 26.8439 19.0323L28.5034 19.9838ZM27.9962 13.5378C29.1382 12.5225 30.5779 11.9006 31.9773 11.8144L27.9962 13.5378Z" fill="#B6B6FD" stroke="black" stroke-width="0.5"/>
</svg>
