<svg width="40" height="40" viewBox="0 0 40 40" fill="none" xmlns="http://www.w3.org/2000/svg">
<path d="M2.77703 29.4949H2.52703V29.7449V34.75H0.25V29.7449V22.6129V21.7214C0.25 21.0284 0.465076 20.4217 0.773507 19.9433C1.11749 19.5091 1.51977 19.25 1.94468 19.25H38.0553C38.4817 19.25 38.8852 19.5108 39.2299 19.9477C39.5625 20.4153 39.75 21.018 39.75 21.7214V22.6129V34.75H37.473V29.7449V29.4949H37.223H2.77703Z" fill="#DFFFFD" stroke="black" stroke-width="0.5"/>
<rect x="7" y="14.2002" width="26" height="4.79975" fill="#B6B6FD"/>
<path d="M33.7443 10.4495L33.7593 10.4665L33.7772 10.4805C33.9071 10.5823 33.9831 10.7555 33.9831 10.9456V18.7336H32.4379V15.8315C32.4379 15.2002 31.9023 14.7619 31.3161 14.7619H21.861C21.2476 14.7619 20.7057 15.1944 20.7057 15.8315V18.7336H19.2945V15.8315C19.2945 15.1944 18.7526 14.7619 18.1393 14.7619H8.68411C8.09789 14.7619 7.56235 15.2002 7.56235 15.8315V18.7336H6.01709V10.9456C6.01709 10.7555 6.09313 10.5823 6.22303 10.4805L6.24088 10.4665L6.25593 10.4495C6.3643 10.3273 6.55625 10.25 6.77296 10.25H33.2273C33.444 10.25 33.6359 10.3273 33.7443 10.4495Z" fill="#DFFFFD" stroke="black" stroke-width="0.5"/>
</svg>
