<svg width="40" height="40" viewBox="0 0 40 40" fill="none" xmlns="http://www.w3.org/2000/svg">
<circle cx="9.5" cy="23.5" r="3.25" fill="#B6B6FD" stroke="black" stroke-width="0.5"/>
<circle cx="30.5" cy="23.5" r="3.25" fill="#B6B6FD" stroke="black" stroke-width="0.5"/>
<path d="M33.4907 18.538L33.5409 18.7224H33.732H34.3093C35.1298 18.7224 35.75 19.344 35.75 20.0804V30.6131C35.75 31.3419 35.0966 31.9711 34.268 31.9711H33.3196H33.0696V32.2211V34.9548C33.0696 35.3409 32.6462 35.75 32.0825 35.75H28.8247C28.2255 35.75 27.8376 35.3458 27.8376 34.9548V32.2211V31.9711H27.5876H12.4124H12.1624V32.2211V34.9548C12.1624 35.3409 11.739 35.75 11.1753 35.75H7.91753C7.3183 35.75 6.93041 35.3458 6.93041 34.9548V32.2211V31.9711H6.68041H5.73196C4.90337 31.9711 4.25 31.3419 4.25 30.6131V20.0804C4.25 19.3516 4.90337 18.7224 5.73196 18.7224H6.30928H6.50038L6.55052 18.538L9.27217 8.5279L9.27233 8.52795L9.2744 8.51907C9.45109 7.76116 10.205 7.18467 11.0928 7.18467H14.3814H14.588L14.627 6.98176L15.2014 3.98687C15.3383 3.5749 15.7732 3.25 16.2371 3.25H23.7629C24.2727 3.25 24.663 3.53991 24.7981 3.98404L25.373 6.98176L25.4119 7.18467H25.6186H28.9485C29.7892 7.18467 30.5531 7.75729 30.7694 8.52898C30.7694 8.52921 30.7695 8.52944 30.7696 8.52966L33.4907 18.538ZM31.5052 18.7224H31.8324L31.7464 18.4066L29.3146 9.48672C29.2003 8.99737 28.7562 8.69472 28.2474 8.69472H11.7526C11.2924 8.69472 10.8015 8.99096 10.6854 9.48668L8.25365 18.4066L8.16757 18.7224H8.49485H31.5052ZM30.5155 26.5214C32.1733 26.5214 33.5283 25.2094 33.5283 23.5779C33.5283 21.9464 32.1733 20.6344 30.5155 20.6344C28.8577 20.6344 27.5026 21.9464 27.5026 23.5779C27.5026 25.2094 28.8577 26.5214 30.5155 26.5214ZM12.4974 23.5779C12.4974 21.9464 11.1423 20.6344 9.48454 20.6344C7.82673 20.6344 6.47165 21.9464 6.47165 23.5779C6.47165 25.2094 7.82673 26.5214 9.48454 26.5214C11.1423 26.5214 12.4974 25.2094 12.4974 23.5779Z" fill="#DFFFFD" stroke="black" stroke-width="0.5"/>
<path d="M22.6437 5.01668L22.6442 5.01607C22.7791 4.85129 22.7646 4.67954 22.6638 4.52473C22.5524 4.35369 22.3621 4.25 22.2214 4.25C22.0108 4.25 21.8 4.38038 21.6596 4.62681L21.5876 4.75303H21.4424H20.273C20.2276 4.75303 20.1901 4.75326 20.1641 4.7535L20.1341 4.75383L20.1264 4.75393L20.1245 4.75396L20.1241 4.75397L20.124 4.75397L20.124 4.75397L20.124 4.75397L20.124 4.75397L20.1202 4.75403L20.1202 4.754H20.1202L20.1201 4.754L20.12 4.754L20.1193 4.754L20.1169 4.754L20.108 4.75401L20.0776 4.75402L19.9997 4.754C19.9858 4.75398 19.9734 4.75397 19.9622 4.75396C19.8877 4.7539 19.8615 4.75387 19.7263 4.75303H18.5577H18.4125L18.3405 4.62683C18.2001 4.38044 17.9892 4.25 17.7787 4.25C17.638 4.25 17.4477 4.35369 17.3363 4.52474C17.2355 4.67956 17.221 4.85131 17.3558 5.01609L17.2835 5.07524C17.3558 5.01611 17.3559 5.0162 17.356 5.01628L17.3561 5.01652L17.3565 5.017L17.3573 5.01797L17.3589 5.01998L17.3622 5.02426L17.3692 5.03397C17.3739 5.04093 17.3791 5.0492 17.3842 5.05874C17.3941 5.07748 17.4052 5.10354 17.4112 5.13602C17.4251 5.21049 17.4073 5.29057 17.3557 5.35545M22.6437 5.01668L22.2213 6.15C22.0099 6.14999 21.7984 6.01854 21.6579 5.77028L21.5861 5.64338H21.4403H18.5596H18.4138L18.342 5.77028C18.2016 6.01854 17.9899 6.15 17.7786 6.15C17.6128 6.15 17.4257 6.04151 17.3222 5.87306C17.2272 5.71839 17.2138 5.53434 17.3557 5.35545M22.6437 5.01668L22.8377 5.1744M22.6437 5.01668L22.8377 5.1744M17.3557 5.35545C17.3557 5.35548 17.3557 5.35552 17.3557 5.35555L17.16 5.19993L17.3558 5.35535C17.3558 5.35538 17.3558 5.35542 17.3557 5.35545ZM22.8377 5.1744C22.6437 5.01668 22.6436 5.0168 22.6435 5.01692L22.6433 5.01716L22.643 5.01763L22.6422 5.0186L22.6406 5.0206L22.6373 5.02486L22.6305 5.03453C22.6258 5.04145 22.6207 5.04968 22.6156 5.05918C22.6057 5.07781 22.5948 5.10378 22.5888 5.13615C22.575 5.21042 22.5926 5.29082 22.6447 5.35605L22.84 5.19995L22.6442 5.35535C22.7862 5.53428 22.7728 5.71834 22.6778 5.87302C22.5743 6.04144 22.3872 6.14996 22.2213 6.15L22.8377 5.1744Z" fill="#B6B6FD" stroke="black" stroke-width="0.5"/>
</svg>
