<svg width="30" height="30" viewBox="0 0 30 30" fill="none" xmlns="http://www.w3.org/2000/svg">
<path d="M19.2195 1.54642L19.2197 1.54583L19.3973 0.911493C25.4011 2.78896 29.7501 8.40594 29.7501 14.9996V15.0004V15.0012V15.002V15.0029V15.0037V15.0045V15.0053V15.0062V15.007V15.0078V15.0086V15.0095V15.0103V15.0111V15.0119V15.0128V15.0136V15.0144V15.0152V15.0161V15.0169V15.0177V15.0185V15.0194V15.0202V15.021V15.0219V15.0227V15.0235V15.0243V15.0252V15.026V15.0268V15.0276V15.0285V15.0293V15.0301V15.0309V15.0318V15.0326V15.0334V15.0342V15.0351V15.0359V15.0367V15.0375V15.0384V15.0392V15.04V15.0408V15.0417V15.0425V15.0433V15.0441V15.045V15.0458V15.0466V15.0474V15.0483V15.0491V15.0499V15.0507V15.0516V15.0524V15.0532V15.054V15.0549V15.0557V15.0565V15.0573V15.0582V15.059V15.0598V15.0606V15.0615V15.0623V15.0631V15.0639V15.0648V15.0656V15.0664V15.0672V15.0681V15.0689V15.0697V15.0705V15.0714V15.0722V15.073V15.0738V15.0747V15.0755V15.0763V15.0771V15.078V15.0788V15.0796V15.0804V15.0813V15.0821V15.0829V15.0837V15.0846V15.0854V15.0862V15.087V15.0879V15.0887V15.0895V15.0903V15.0912V15.092V15.0928V15.0936V15.0945V15.0953V15.0961V15.0969V15.0978V15.0986V15.0994V15.1003V15.1011V15.1019V15.1027V15.1036V15.1044V15.1052V15.106V15.1069V15.1077V15.1085V15.1093V15.1102V15.111V15.1118V15.1126V15.1135V15.1143V15.1151V15.1159V15.1168V15.1176V15.1184V15.1192V15.1201V15.1209V15.1217V15.1225V15.1234V15.1242V15.125V15.1258V15.1267V15.1275V15.1283V15.1291V15.13V15.1308V15.1316V15.1324V15.1333V15.1341V15.1349V15.1357V15.1366V15.1374V15.1382V15.139V15.1399V15.1407V15.1415V15.1423V15.1432V15.144V15.1448V15.1456V15.1465V15.1473V15.1481V15.1489V15.1498V15.1506V15.1514V15.1522V15.1531V15.1539V15.1547V15.1555V15.1564V15.1572V15.158V15.1588V15.1597V15.1605V15.1613V15.1621V15.1623L29.0949 15.1371C29.0948 15.1371 29.0947 15.1371 29.0945 15.1371C25.755 14.9993 22.7636 13.382 20.8725 10.7345L20.8725 10.7345L20.8713 10.7328C18.9441 8.08287 18.3251 4.7113 19.2195 1.54642Z" fill="#B6B6FD" stroke="black" stroke-width="0.5"/>
<path d="M10.6242 18.1621L10.6239 18.1617C8.32797 15.0407 4.81182 13.067 0.972013 12.7439C0.971885 12.7439 0.971757 12.7439 0.97163 12.7438L0.427307 12.6965C1.54261 5.6559 7.6469 0.25 15 0.25C15.6328 0.25 16.2353 0.276084 16.8317 0.349916L16.696 0.847681C16.6959 0.847975 16.6958 0.848269 16.6957 0.848563C15.5839 4.79485 16.3372 8.95807 18.7764 12.2594C21.1466 15.5979 24.8801 17.5704 29.0027 17.7498L29.0032 17.7498L29.4923 17.772C28.2018 24.593 22.1736 29.75 15 29.75C14.2227 29.75 13.4738 29.6943 12.7278 29.5828L12.8499 28.9968C13.7101 25.195 12.8851 21.2485 10.6242 18.1621Z" fill="#DFFFFD" stroke="black" stroke-width="0.5"/>
<path d="M10.2046 28.9362C4.49977 26.9833 0.368666 21.6364 0.252513 15.3089L0.752015 15.3543L0.752013 15.3543L0.755263 15.3546C3.84861 15.5952 6.6709 17.2108 8.53126 19.6904C10.3541 22.202 11.0078 25.3671 10.3196 28.4304C10.3195 28.4305 10.3195 28.4307 10.3195 28.4308L10.2046 28.9362Z" fill="#B6B6FD" stroke="black" stroke-width="0.5"/>
</svg>
