<svg width="36" height="36" viewBox="0 0 36 36" fill="none" xmlns="http://www.w3.org/2000/svg">
<path d="M9 20.0465L16.875 28L24.3125 23.814L30 20.0465L27.8125 13.7674L24.3125 11.6744L21.25 10H16.875L9 15.0233V20.0465Z" fill="#B6B6FD"/>
<mask id="path-2-outside-1_5_2" maskUnits="userSpaceOnUse" x="0" y="0" width="36" height="36" fill="black">
<rect fill="white" width="36" height="36"/>
<path fill-rule="evenodd" clip-rule="evenodd" d="M23.6778 18.1423C23.2447 18.4176 22.9189 18.7655 22.6992 19.1863C22.5914 19.4175 22.5257 19.6338 22.5019 19.8358C22.4697 20.0869 22.4977 20.33 22.5851 20.5658C22.7132 20.8607 22.9104 21.0732 23.1777 21.203C23.347 21.2908 23.5412 21.3506 23.761 21.3829C24.0702 21.4109 24.4049 21.3595 24.7634 21.2306C25.0043 21.1228 25.2317 20.9858 25.4455 20.8199C25.7306 20.5866 25.9452 20.3274 26.089 20.0424L26.1875 19.8294C26.2413 19.7144 26.2795 19.5715 26.3011 19.4018C26.3491 19.1206 26.3266 18.8601 26.2329 18.6208C26.1149 18.3396 25.9295 18.1266 25.6759 17.9832C25.5164 17.8874 25.3318 17.8288 25.1223 17.8068C24.7969 17.7669 24.4656 17.8089 24.1283 17.9323C23.9744 17.9926 23.8238 18.0626 23.6778 18.1423ZM24.013 13.3042C23.8034 13.2283 23.596 13.2011 23.3902 13.2236C23.1187 13.2372 22.846 13.3144 22.5706 13.454C22.2873 13.5935 22.0137 13.7942 21.7507 14.0555C21.5326 14.285 21.3477 14.548 21.1937 14.8454C21.1194 15.0027 21.0689 15.1275 21.0409 15.2191C20.9777 15.4066 20.9345 15.6009 20.9124 15.8028C20.8827 16.0841 20.9167 16.3611 21.0138 16.6343C21.1317 16.9554 21.3404 17.1972 21.6395 17.3588C21.8088 17.4466 21.995 17.5022 22.1961 17.5264C22.4438 17.5459 22.7162 17.5086 23.0131 17.4123C23.2846 17.3126 23.551 17.1582 23.8123 16.9486C24.1737 16.6593 24.4529 16.3136 24.6501 15.9106C24.7698 15.6849 24.8478 15.4567 24.8839 15.225C24.9458 14.926 24.9526 14.6439 24.9047 14.3783C24.8232 13.9499 24.6086 13.6304 24.2615 13.4209L24.2497 13.4031L24.0371 13.3042H24.013ZM14.9043 18.2743C14.6231 18.3557 14.3512 18.4635 14.0877 18.5975C13.7131 18.799 13.4069 19.0264 13.1693 19.2796C13.0098 19.4413 12.863 19.6398 12.7294 19.8744C12.6234 20.0682 12.5491 20.2604 12.505 20.4526C12.3811 20.9871 12.4541 21.5016 12.7235 21.9963C12.8872 22.2682 13.1095 22.4884 13.3907 22.6576L13.5405 22.7386L14.0644 22.9448C14.2481 22.9923 14.556 23.0555 14.9892 23.1332L15.8567 23.3033L16.2847 23.4441C16.5159 23.5519 16.6835 23.6375 16.7874 23.7012C16.9927 23.8272 17.2154 23.9854 17.4547 24.1767C17.6303 24.3205 17.8878 24.5373 18.2263 24.8262C18.4342 24.9878 18.5996 25.0968 18.7235 25.1524L18.768 25.1736L18.7858 25.1914L19.0073 25.2962H19.0285L19.1091 25.3323L19.3687 25.3946C19.6143 25.4404 19.868 25.4426 20.1293 25.401C20.4903 25.3331 20.8042 25.1978 21.0719 24.9942C21.357 24.7668 21.5738 24.4694 21.721 24.102C21.8071 23.8989 21.8669 23.66 21.9008 23.3868C21.9326 23.0657 21.9195 22.7514 21.8614 22.4442C21.7982 22.0773 21.693 21.7239 21.5475 21.3846C21.4219 21.1152 21.3222 20.8255 21.2484 20.5141C21.1763 20.1989 21.1215 19.8964 21.0838 19.6071L20.9726 18.7935C20.9188 18.5042 20.8526 18.2526 20.772 18.0392C20.6244 17.6821 20.4093 17.3881 20.1259 17.1565C19.9427 17.0148 19.7318 16.8879 19.4947 16.7764C19.2991 16.6962 19.0921 16.6474 18.8724 16.6296C18.6187 16.6198 18.3353 16.6665 18.0223 16.7704C17.811 16.8544 17.6048 16.9461 17.4033 17.0453C17.2175 17.1395 16.9494 17.288 16.5986 17.4912C16.2359 17.6986 15.9284 17.8602 15.6768 17.976C15.4214 18.1092 15.1644 18.2081 14.9043 18.2743ZM17.1908 12.6458C17.1289 12.827 17.0759 13.0136 17.0317 13.2054C16.974 13.5863 16.9749 13.9299 17.0347 14.2375C17.0826 14.5348 17.1895 14.808 17.355 15.0575C17.5009 15.2649 17.6647 15.4147 17.8488 15.5067C18.0638 15.6302 18.2997 15.6861 18.5547 15.6743C18.7621 15.6624 18.9746 15.6013 19.1922 15.4919C19.5032 15.3145 19.7607 15.071 19.9639 14.7614C20.0555 14.6396 20.1425 14.492 20.2243 14.3185L20.3558 13.9236C20.4258 13.7042 20.4704 13.4697 20.4878 13.2206C20.4975 12.8274 20.4373 12.4596 20.3049 12.1164C20.2171 11.8946 20.0907 11.7003 19.9249 11.5327C19.725 11.3274 19.4951 11.2027 19.2334 11.159C18.9823 11.1051 18.7231 11.1323 18.4558 11.2396C18.2306 11.3312 18.0235 11.4699 17.8365 11.6553C17.607 11.8789 17.4186 12.1512 17.2706 12.4723L17.1908 12.6458ZM14.9586 13.0013C14.6935 12.9339 14.4301 12.9547 14.1687 13.0645C13.9511 13.1604 13.7564 13.311 13.585 13.5163C13.5112 13.6084 13.4395 13.7127 13.3695 13.8307L13.3394 13.8637L13.2139 14.1331L13.154 14.3363C13.0722 14.6116 13.0382 14.8861 13.0522 15.1593C13.0624 15.4702 13.1171 15.7468 13.2172 15.9882C13.3309 16.2813 13.4875 16.5218 13.6868 16.7093C13.8523 16.8574 14.0377 16.9639 14.2434 17.0296C14.5268 17.1077 14.8089 17.0865 15.0901 16.9668C15.3094 16.8752 15.5071 16.7208 15.6828 16.5032C15.7884 16.3793 15.8893 16.2151 15.9844 16.0098L16.0921 15.7226C16.16 15.5029 16.1948 15.2967 16.1969 15.1033C16.2168 14.6901 16.1511 14.3036 15.9996 13.9422C15.8876 13.6949 15.7371 13.4883 15.5479 13.3233C15.3684 13.154 15.1724 13.048 14.9586 13.0013ZM23.2379 2.28663C24.0978 3.1465 24.5275 4.1837 24.5275 5.39821V11.4754H30.6018C31.8163 11.4754 32.8539 11.9043 33.7134 12.7621C34.5711 13.6219 35 14.6596 35 15.8741V20.1259C35 21.3404 34.5711 22.3772 33.7134 23.2345C32.8539 24.0944 31.8163 24.5246 30.6018 24.5246H24.5275V30.6014C24.5275 31.8163 24.0978 32.8527 23.2379 33.7104C22.3802 34.5699 21.3438 35 20.1293 35H15.8775C14.6625 35 13.6253 34.5699 12.7655 33.7104C11.9077 32.8527 11.4788 31.8163 11.4788 30.6014V24.525H5.39863C4.18369 24.525 3.14735 24.0948 2.2896 23.235C1.43015 22.3776 1 21.3409 1 20.1264V15.8745C1 14.6596 1.43015 13.6219 2.2896 12.7625C3.14735 11.9047 4.18369 11.4759 5.39863 11.4759H11.4788V5.39821C11.4788 4.18327 11.9077 3.14608 12.7655 2.28663C13.6253 1.42888 14.6625 1 15.8775 1H20.1293C21.3438 1 22.3802 1.42888 23.2379 2.28663Z"/>
</mask>
<path fill-rule="evenodd" clip-rule="evenodd" d="M23.6778 18.1423C23.2447 18.4176 22.9189 18.7655 22.6992 19.1863C22.5914 19.4175 22.5257 19.6338 22.5019 19.8358C22.4697 20.0869 22.4977 20.33 22.5851 20.5658C22.7132 20.8607 22.9104 21.0732 23.1777 21.203C23.347 21.2908 23.5412 21.3506 23.761 21.3829C24.0702 21.4109 24.4049 21.3595 24.7634 21.2306C25.0043 21.1228 25.2317 20.9858 25.4455 20.8199C25.7306 20.5866 25.9452 20.3274 26.089 20.0424L26.1875 19.8294C26.2413 19.7144 26.2795 19.5715 26.3011 19.4018C26.3491 19.1206 26.3266 18.8601 26.2329 18.6208C26.1149 18.3396 25.9295 18.1266 25.6759 17.9832C25.5164 17.8874 25.3318 17.8288 25.1223 17.8068C24.7969 17.7669 24.4656 17.8089 24.1283 17.9323C23.9744 17.9926 23.8238 18.0626 23.6778 18.1423ZM24.013 13.3042C23.8034 13.2283 23.596 13.2011 23.3902 13.2236C23.1187 13.2372 22.846 13.3144 22.5706 13.454C22.2873 13.5935 22.0137 13.7942 21.7507 14.0555C21.5326 14.285 21.3477 14.548 21.1937 14.8454C21.1194 15.0027 21.0689 15.1275 21.0409 15.2191C20.9777 15.4066 20.9345 15.6009 20.9124 15.8028C20.8827 16.0841 20.9167 16.3611 21.0138 16.6343C21.1317 16.9554 21.3404 17.1972 21.6395 17.3588C21.8088 17.4466 21.995 17.5022 22.1961 17.5264C22.4438 17.5459 22.7162 17.5086 23.0131 17.4123C23.2846 17.3126 23.551 17.1582 23.8123 16.9486C24.1737 16.6593 24.4529 16.3136 24.6501 15.9106C24.7698 15.6849 24.8478 15.4567 24.8839 15.225C24.9458 14.926 24.9526 14.6439 24.9047 14.3783C24.8232 13.9499 24.6086 13.6304 24.2615 13.4209L24.2497 13.4031L24.0371 13.3042H24.013ZM14.9043 18.2743C14.6231 18.3557 14.3512 18.4635 14.0877 18.5975C13.7131 18.799 13.4069 19.0264 13.1693 19.2796C13.0098 19.4413 12.863 19.6398 12.7294 19.8744C12.6234 20.0682 12.5491 20.2604 12.505 20.4526C12.3811 20.9871 12.4541 21.5016 12.7235 21.9963C12.8872 22.2682 13.1095 22.4884 13.3907 22.6576L13.5405 22.7386L14.0644 22.9448C14.2481 22.9923 14.556 23.0555 14.9892 23.1332L15.8567 23.3033L16.2847 23.4441C16.5159 23.5519 16.6835 23.6375 16.7874 23.7012C16.9927 23.8272 17.2154 23.9854 17.4547 24.1767C17.6303 24.3205 17.8878 24.5373 18.2263 24.8262C18.4342 24.9878 18.5996 25.0968 18.7235 25.1524L18.768 25.1736L18.7858 25.1914L19.0073 25.2962H19.0285L19.1091 25.3323L19.3687 25.3946C19.6143 25.4404 19.868 25.4426 20.1293 25.401C20.4903 25.3331 20.8042 25.1978 21.0719 24.9942C21.357 24.7668 21.5738 24.4694 21.721 24.102C21.8071 23.8989 21.8669 23.66 21.9008 23.3868C21.9326 23.0657 21.9195 22.7514 21.8614 22.4442C21.7982 22.0773 21.693 21.7239 21.5475 21.3846C21.4219 21.1152 21.3222 20.8255 21.2484 20.5141C21.1763 20.1989 21.1215 19.8964 21.0838 19.6071L20.9726 18.7935C20.9188 18.5042 20.8526 18.2526 20.772 18.0392C20.6244 17.6821 20.4093 17.3881 20.1259 17.1565C19.9427 17.0148 19.7318 16.8879 19.4947 16.7764C19.2991 16.6962 19.0921 16.6474 18.8724 16.6296C18.6187 16.6198 18.3353 16.6665 18.0223 16.7704C17.811 16.8544 17.6048 16.9461 17.4033 17.0453C17.2175 17.1395 16.9494 17.288 16.5986 17.4912C16.2359 17.6986 15.9284 17.8602 15.6768 17.976C15.4214 18.1092 15.1644 18.2081 14.9043 18.2743ZM17.1908 12.6458C17.1289 12.827 17.0759 13.0136 17.0317 13.2054C16.974 13.5863 16.9749 13.9299 17.0347 14.2375C17.0826 14.5348 17.1895 14.808 17.355 15.0575C17.5009 15.2649 17.6647 15.4147 17.8488 15.5067C18.0638 15.6302 18.2997 15.6861 18.5547 15.6743C18.7621 15.6624 18.9746 15.6013 19.1922 15.4919C19.5032 15.3145 19.7607 15.071 19.9639 14.7614C20.0555 14.6396 20.1425 14.492 20.2243 14.3185L20.3558 13.9236C20.4258 13.7042 20.4704 13.4697 20.4878 13.2206C20.4975 12.8274 20.4373 12.4596 20.3049 12.1164C20.2171 11.8946 20.0907 11.7003 19.9249 11.5327C19.725 11.3274 19.4951 11.2027 19.2334 11.159C18.9823 11.1051 18.7231 11.1323 18.4558 11.2396C18.2306 11.3312 18.0235 11.4699 17.8365 11.6553C17.607 11.8789 17.4186 12.1512 17.2706 12.4723L17.1908 12.6458ZM14.9586 13.0013C14.6935 12.9339 14.4301 12.9547 14.1687 13.0645C13.9511 13.1604 13.7564 13.311 13.585 13.5163C13.5112 13.6084 13.4395 13.7127 13.3695 13.8307L13.3394 13.8637L13.2139 14.1331L13.154 14.3363C13.0722 14.6116 13.0382 14.8861 13.0522 15.1593C13.0624 15.4702 13.1171 15.7468 13.2172 15.9882C13.3309 16.2813 13.4875 16.5218 13.6868 16.7093C13.8523 16.8574 14.0377 16.9639 14.2434 17.0296C14.5268 17.1077 14.8089 17.0865 15.0901 16.9668C15.3094 16.8752 15.5071 16.7208 15.6828 16.5032C15.7884 16.3793 15.8893 16.2151 15.9844 16.0098L16.0921 15.7226C16.16 15.5029 16.1948 15.2967 16.1969 15.1033C16.2168 14.6901 16.1511 14.3036 15.9996 13.9422C15.8876 13.6949 15.7371 13.4883 15.5479 13.3233C15.3684 13.154 15.1724 13.048 14.9586 13.0013ZM23.2379 2.28663C24.0978 3.1465 24.5275 4.1837 24.5275 5.39821V11.4754H30.6018C31.8163 11.4754 32.8539 11.9043 33.7134 12.7621C34.5711 13.6219 35 14.6596 35 15.8741V20.1259C35 21.3404 34.5711 22.3772 33.7134 23.2345C32.8539 24.0944 31.8163 24.5246 30.6018 24.5246H24.5275V30.6014C24.5275 31.8163 24.0978 32.8527 23.2379 33.7104C22.3802 34.5699 21.3438 35 20.1293 35H15.8775C14.6625 35 13.6253 34.5699 12.7655 33.7104C11.9077 32.8527 11.4788 31.8163 11.4788 30.6014V24.525H5.39863C4.18369 24.525 3.14735 24.0948 2.2896 23.235C1.43015 22.3776 1 21.3409 1 20.1264V15.8745C1 14.6596 1.43015 13.6219 2.2896 12.7625C3.14735 11.9047 4.18369 11.4759 5.39863 11.4759H11.4788V5.39821C11.4788 4.18327 11.9077 3.14608 12.7655 2.28663C13.6253 1.42888 14.6625 1 15.8775 1H20.1293C21.3438 1 22.3802 1.42888 23.2379 2.28663Z" fill="#DFFFFD"/>
<path fill-rule="evenodd" clip-rule="evenodd" d="M23.6778 18.1423C23.2447 18.4176 22.9189 18.7655 22.6992 19.1863C22.5914 19.4175 22.5257 19.6338 22.5019 19.8358C22.4697 20.0869 22.4977 20.33 22.5851 20.5658C22.7132 20.8607 22.9104 21.0732 23.1777 21.203C23.347 21.2908 23.5412 21.3506 23.761 21.3829C24.0702 21.4109 24.4049 21.3595 24.7634 21.2306C25.0043 21.1228 25.2317 20.9858 25.4455 20.8199C25.7306 20.5866 25.9452 20.3274 26.089 20.0424L26.1875 19.8294C26.2413 19.7144 26.2795 19.5715 26.3011 19.4018C26.3491 19.1206 26.3266 18.8601 26.2329 18.6208C26.1149 18.3396 25.9295 18.1266 25.6759 17.9832C25.5164 17.8874 25.3318 17.8288 25.1223 17.8068C24.7969 17.7669 24.4656 17.8089 24.1283 17.9323C23.9744 17.9926 23.8238 18.0626 23.6778 18.1423ZM24.013 13.3042C23.8034 13.2283 23.596 13.2011 23.3902 13.2236C23.1187 13.2372 22.846 13.3144 22.5706 13.454C22.2873 13.5935 22.0137 13.7942 21.7507 14.0555C21.5326 14.285 21.3477 14.548 21.1937 14.8454C21.1194 15.0027 21.0689 15.1275 21.0409 15.2191C20.9777 15.4066 20.9345 15.6009 20.9124 15.8028C20.8827 16.0841 20.9167 16.3611 21.0138 16.6343C21.1317 16.9554 21.3404 17.1972 21.6395 17.3588C21.8088 17.4466 21.995 17.5022 22.1961 17.5264C22.4438 17.5459 22.7162 17.5086 23.0131 17.4123C23.2846 17.3126 23.551 17.1582 23.8123 16.9486C24.1737 16.6593 24.4529 16.3136 24.6501 15.9106C24.7698 15.6849 24.8478 15.4567 24.8839 15.225C24.9458 14.926 24.9526 14.6439 24.9047 14.3783C24.8232 13.9499 24.6086 13.6304 24.2615 13.4209L24.2497 13.4031L24.0371 13.3042H24.013ZM14.9043 18.2743C14.6231 18.3557 14.3512 18.4635 14.0877 18.5975C13.7131 18.799 13.4069 19.0264 13.1693 19.2796C13.0098 19.4413 12.863 19.6398 12.7294 19.8744C12.6234 20.0682 12.5491 20.2604 12.505 20.4526C12.3811 20.9871 12.4541 21.5016 12.7235 21.9963C12.8872 22.2682 13.1095 22.4884 13.3907 22.6576L13.5405 22.7386L14.0644 22.9448C14.2481 22.9923 14.556 23.0555 14.9892 23.1332L15.8567 23.3033L16.2847 23.4441C16.5159 23.5519 16.6835 23.6375 16.7874 23.7012C16.9927 23.8272 17.2154 23.9854 17.4547 24.1767C17.6303 24.3205 17.8878 24.5373 18.2263 24.8262C18.4342 24.9878 18.5996 25.0968 18.7235 25.1524L18.768 25.1736L18.7858 25.1914L19.0073 25.2962H19.0285L19.1091 25.3323L19.3687 25.3946C19.6143 25.4404 19.868 25.4426 20.1293 25.401C20.4903 25.3331 20.8042 25.1978 21.0719 24.9942C21.357 24.7668 21.5738 24.4694 21.721 24.102C21.8071 23.8989 21.8669 23.66 21.9008 23.3868C21.9326 23.0657 21.9195 22.7514 21.8614 22.4442C21.7982 22.0773 21.693 21.7239 21.5475 21.3846C21.4219 21.1152 21.3222 20.8255 21.2484 20.5141C21.1763 20.1989 21.1215 19.8964 21.0838 19.6071L20.9726 18.7935C20.9188 18.5042 20.8526 18.2526 20.772 18.0392C20.6244 17.6821 20.4093 17.3881 20.1259 17.1565C19.9427 17.0148 19.7318 16.8879 19.4947 16.7764C19.2991 16.6962 19.0921 16.6474 18.8724 16.6296C18.6187 16.6198 18.3353 16.6665 18.0223 16.7704C17.811 16.8544 17.6048 16.9461 17.4033 17.0453C17.2175 17.1395 16.9494 17.288 16.5986 17.4912C16.2359 17.6986 15.9284 17.8602 15.6768 17.976C15.4214 18.1092 15.1644 18.2081 14.9043 18.2743ZM17.1908 12.6458C17.1289 12.827 17.0759 13.0136 17.0317 13.2054C16.974 13.5863 16.9749 13.9299 17.0347 14.2375C17.0826 14.5348 17.1895 14.808 17.355 15.0575C17.5009 15.2649 17.6647 15.4147 17.8488 15.5067C18.0638 15.6302 18.2997 15.6861 18.5547 15.6743C18.7621 15.6624 18.9746 15.6013 19.1922 15.4919C19.5032 15.3145 19.7607 15.071 19.9639 14.7614C20.0555 14.6396 20.1425 14.492 20.2243 14.3185L20.3558 13.9236C20.4258 13.7042 20.4704 13.4697 20.4878 13.2206C20.4975 12.8274 20.4373 12.4596 20.3049 12.1164C20.2171 11.8946 20.0907 11.7003 19.9249 11.5327C19.725 11.3274 19.4951 11.2027 19.2334 11.159C18.9823 11.1051 18.7231 11.1323 18.4558 11.2396C18.2306 11.3312 18.0235 11.4699 17.8365 11.6553C17.607 11.8789 17.4186 12.1512 17.2706 12.4723L17.1908 12.6458ZM14.9586 13.0013C14.6935 12.9339 14.4301 12.9547 14.1687 13.0645C13.9511 13.1604 13.7564 13.311 13.585 13.5163C13.5112 13.6084 13.4395 13.7127 13.3695 13.8307L13.3394 13.8637L13.2139 14.1331L13.154 14.3363C13.0722 14.6116 13.0382 14.8861 13.0522 15.1593C13.0624 15.4702 13.1171 15.7468 13.2172 15.9882C13.3309 16.2813 13.4875 16.5218 13.6868 16.7093C13.8523 16.8574 14.0377 16.9639 14.2434 17.0296C14.5268 17.1077 14.8089 17.0865 15.0901 16.9668C15.3094 16.8752 15.5071 16.7208 15.6828 16.5032C15.7884 16.3793 15.8893 16.2151 15.9844 16.0098L16.0921 15.7226C16.16 15.5029 16.1948 15.2967 16.1969 15.1033C16.2168 14.6901 16.1511 14.3036 15.9996 13.9422C15.8876 13.6949 15.7371 13.4883 15.5479 13.3233C15.3684 13.154 15.1724 13.048 14.9586 13.0013ZM23.2379 2.28663C24.0978 3.1465 24.5275 4.1837 24.5275 5.39821V11.4754H30.6018C31.8163 11.4754 32.8539 11.9043 33.7134 12.7621C34.5711 13.6219 35 14.6596 35 15.8741V20.1259C35 21.3404 34.5711 22.3772 33.7134 23.2345C32.8539 24.0944 31.8163 24.5246 30.6018 24.5246H24.5275V30.6014C24.5275 31.8163 24.0978 32.8527 23.2379 33.7104C22.3802 34.5699 21.3438 35 20.1293 35H15.8775C14.6625 35 13.6253 34.5699 12.7655 33.7104C11.9077 32.8527 11.4788 31.8163 11.4788 30.6014V24.525H5.39863C4.18369 24.525 3.14735 24.0948 2.2896 23.235C1.43015 22.3776 1 21.3409 1 20.1264V15.8745C1 14.6596 1.43015 13.6219 2.2896 12.7625C3.14735 11.9047 4.18369 11.4759 5.39863 11.4759H11.4788V5.39821C11.4788 4.18327 11.9077 3.14608 12.7655 2.28663C13.6253 1.42888 14.6625 1 15.8775 1H20.1293C21.3438 1 22.3802 1.42888 23.2379 2.28663Z" stroke="black" mask="url(#path-2-outside-1_5_2)"/>
</svg>
